<svg xmlns="http://www.w3.org/2000/svg" viewBox="0 0 116.62 168.27"><defs><style>.cls-1,.cls-4{fill:#edb83e;}.cls-2{fill:#2c3761;}.cls-3{fill:#5392fb;}.cls-4{font-size:27.65px;font-family:Montserrat-Black, Montserrat;font-weight:800;}.cls-5{letter-spacing:-0.01em;}.cls-6{letter-spacing:0em;}.cls-7{font-size:14.99px;fill:#6f6f6f;font-family:Montserrat-Medium, Montserrat;font-weight:500;letter-spacing:0.3em;}.cls-8{letter-spacing:0.28em;}.cls-9{letter-spacing:0.3em;}.cls-10{letter-spacing:0.28em;}</style></defs><g id="OBJECTS"><path class="cls-1" d="M9.56,82.62V32.71a3.38,3.38,0,0,0-3.47-3.38c-1.1,0-2.08.07-2.91.12A3.37,3.37,0,0,0,0,32.82V92.41a3.36,3.36,0,0,0,3.54,3.37,115.2,115.2,0,0,1,24.21,1.4A3.37,3.37,0,0,0,29.5,90.7a92.69,92.69,0,0,0-17.14-4.76A3.36,3.36,0,0,1,9.56,82.62Z" transform="translate(0)"/><path class="cls-2" d="M34.41,76.2V23.67a3.39,3.39,0,0,0-2.16-3.15,105.28,105.28,0,0,0-13.68-4.27,3.37,3.37,0,0,0-4.14,3.29V79a3.36,3.36,0,0,0,2.64,3.3,101.34,101.34,0,0,1,21,7.12,3.37,3.37,0,0,0,3.62-5.62c-2.52-2.19-4.68-3.9-6-4.91A3.34,3.34,0,0,1,34.41,76.2Z" transform="translate(0)"/><path class="cls-3" d="M39.27,13.84V73.08a3.36,3.36,0,0,0,1.29,2.65A87.19,87.19,0,0,1,58,94.06a3.37,3.37,0,0,0,6.17-1.89V46.85c0-21-12.48-31.56-19.75-35.92A3.38,3.38,0,0,0,39.27,13.84Z" transform="translate(0)"/><path class="cls-2" d="M109.77,77.21v-45a3.37,3.37,0,0,1,3.54-3.37h.14a3.37,3.37,0,0,1,3.17,3.37V87.81a3.37,3.37,0,0,1-3.57,3.37,66.62,66.62,0,0,0-20.77,2A3.38,3.38,0,0,1,89.79,87a68.16,68.16,0,0,1,17.32-6.48A3.37,3.37,0,0,0,109.77,77.21Z" transform="translate(0)"/><path class="cls-1" d="M104.91,14.3V74a3.37,3.37,0,0,1-2.16,3.15c-6,2.3-23.15,9.46-32.76,19.74a3.38,3.38,0,0,1-5.87-2.28V46.85c0-23.73,26.09-33,36.54-35.81A3.38,3.38,0,0,1,104.91,14.3Z" transform="translate(0)"/><path class="cls-1" d="M70.87,1.76l1.64,3A3.45,3.45,0,0,0,73.85,6.1l3,1.64a3.37,3.37,0,0,1,0,5.92l-3,1.64a3.41,3.41,0,0,0-1.34,1.35l-1.64,3a3.37,3.37,0,0,1-5.92,0l-1.65-3A3.29,3.29,0,0,0,62,15.3l-3-1.64a3.37,3.37,0,0,1,0-5.92L62,6.1A3.32,3.32,0,0,0,63.3,4.76l1.65-3A3.37,3.37,0,0,1,70.87,1.76Z" transform="translate(0)"/><text class="cls-4" transform="translate(20.21 160.8)">№ <tspan class="cls-5" x="42.39" y="0">3</tspan><tspan class="cls-6" x="59.09" y="0">5</tspan></text><text class="cls-7" transform="translate(2.16 129.52)">М<tspan class="cls-8" x="18.93" y="0">О</tspan><tspan class="cls-9" x="35.77" y="0">У </tspan><tspan class="cls-10" x="59.15" y="0">С</tspan><tspan class="cls-9" x="74.18" y="0">ОШ</tspan></text></g></svg>