<?xml version="1.0" encoding="utf-8"?>
<!-- Generator: Adobe Illustrator 26.0.3, SVG Export Plug-In . SVG Version: 6.00 Build 0)  -->
<svg version="1.1" id="Слой_1" xmlns="http://www.w3.org/2000/svg" xmlns:xlink="http://www.w3.org/1999/xlink" x="0px" y="0px"
	 viewBox="0 0 174 226.6" style="enable-background:new 0 0 174 226.6;" xml:space="preserve">
<style type="text/css">
	.st0{fill:#FFFFFF;stroke:#D1D1D1;stroke-miterlimit:10;}
	.st1{fill:#EDB83E;}
	.st2{fill:#2C3761;}
	.st3{fill:#5392FB;}
	.st4{fill:#6F6F6F;}
</style>
<g id="OBJECTS">
	<path class="st0" d="M160.2,35.7v-0.6c0-1.9-0.3-3.8-0.8-5.7c-3.2-11.9-15.4-18.9-27.3-15.8c-2.9,0.8-5.7,1.7-8.5,2.6
		c-1.6-1.9-3.6-3.5-5.9-4.8c-2.1-3.7-5.1-6.7-8.8-8.7c-10.8-5.9-24.2-1.9-30.1,8.8c-1.1,0.6-2.1,1.3-3,2.1
		c-9.1-3.1-19.3-0.1-25.2,7.8c-2.1-0.6-4.2-1.2-6.3-1.7c-11.6-2.7-23.2,4.2-26.4,15.5C7.6,37.2,0,46.2,0,57v70.2
		c0,4.9,1.6,9.6,4.5,13.4v48.7h16.7l4.6,7.7v29.2h33.9h1.3h16.4h7.5v-3c6.3,3,12.7,3.5,16.2,3.5c3.5,0,6.8-0.5,9.7-1.4
		c4.2,1.1,8,1.4,10.4,1.4c14.4,0,23.6-8,27.1-17.5h0.1v-0.2c1-2.8,1.5-5.7,1.5-8.5c0-2.9-0.5-5.9-1.5-8.6v-2.5h16.1v-48.9h-0.1
		c1.2-0.8,2.4-1.8,3.4-2.8c4.2-4.2,6.5-9.8,6.5-15.7V56.3C174,47,168.3,39,160.2,35.7z M123.7,96c-3.6,1.6-7.5,3.5-11.5,5.7V73.5
		c0-0.3,0-0.7,0-1c0.4-7,5.5-12.3,11.5-16.1V96z"/>
	<g>
		<path class="st1" d="M38.3,115.3V65.4c0-1.9-1.5-3.4-3.4-3.4c0,0-0.1,0-0.1,0c-1.1,0-2.1,0.1-2.9,0.1c-1.8,0.1-3.2,1.6-3.2,3.4
			v59.6c0,1.9,1.5,3.4,3.3,3.4c0.1,0,0.1,0,0.2,0c8.1-0.4,16.2,0.1,24.2,1.4c1.8,0.3,3.6-0.9,3.9-2.7c0.3-1.6-0.6-3.2-2.1-3.7
			c-5.5-2.1-11.3-3.7-17.1-4.8C39.4,118.3,38.3,116.9,38.3,115.3z"/>
	</g>
	<g>
		<path class="st2" d="M63.1,108.9V56.4c0-1.4-0.9-2.6-2.2-3.2c-4.5-1.7-9-3.2-13.7-4.3c-1.8-0.4-3.6,0.7-4.1,2.5
			c-0.1,0.3-0.1,0.5-0.1,0.8v59.5c0,1.6,1.1,3,2.6,3.3c7.2,1.6,14.3,4,21,7.1c1.7,0.8,3.7,0.1,4.5-1.6c0.7-1.4,0.3-3-0.9-4
			c-2.5-2.2-4.7-3.9-6-4.9C63.6,110.9,63.1,109.9,63.1,108.9z"/>
	</g>
	<g>
		<path class="st3" d="M68,46.5v59.2c0,1,0.5,2,1.3,2.7c6.7,5.2,12.5,11.4,17.4,18.3c1,1.5,3.1,2,4.7,0.9c0.9-0.6,1.5-1.7,1.5-2.8
			V79.5c0-21-12.5-31.6-19.8-35.9c-1.6-1-3.7-0.5-4.6,1.1C68.1,45.3,68,45.9,68,46.5z"/>
	</g>
	<g>
		<path class="st2" d="M138.5,109.9v-45c0-1.9,1.5-3.4,3.4-3.4c0.1,0,0.1,0,0.2,0h0.1c1.8,0.1,3.2,1.6,3.2,3.4v55.6
			c0,1.9-1.5,3.4-3.4,3.4c-0.1,0-0.1,0-0.2,0c-7-0.4-14,0.2-20.8,2c-1.8,0.4-3.6-0.8-4-2.6c-0.3-1.4,0.3-2.8,1.5-3.6
			c5.5-2.9,11.3-5.1,17.3-6.5C137.4,112.9,138.5,111.5,138.5,109.9z"/>
	</g>
	<g>
		<path class="st1" d="M133.6,47v59.7c0,1.4-0.9,2.6-2.2,3.2c-6,2.3-23.2,9.5-32.8,19.7c-1.3,1.4-3.4,1.5-4.8,0.2
			c-0.7-0.6-1.1-1.5-1.1-2.5V79.5c0-23.7,26.1-33,36.5-35.8c1.8-0.5,3.7,0.6,4.1,2.4C133.6,46.4,133.6,46.7,133.6,47z"/>
	</g>
	<g>
		<path class="st1" d="M99.6,34.4l1.6,3c0.3,0.6,0.8,1,1.3,1.3l3,1.6c1.6,0.9,2.2,2.9,1.3,4.6c-0.3,0.6-0.8,1-1.3,1.3l-3,1.6
			c-0.6,0.3-1,0.8-1.3,1.4l-1.6,3c-0.9,1.6-2.9,2.2-4.6,1.3c-0.6-0.3-1-0.8-1.3-1.3l-1.7-3c-0.3-0.6-0.7-1-1.3-1.4l-3-1.6
			c-1.6-0.9-2.2-2.9-1.3-4.6c0.3-0.6,0.8-1,1.3-1.3l3-1.6c0.6-0.3,1-0.8,1.3-1.3l1.6-3c0.9-1.6,2.9-2.2,4.6-1.3
			C98.8,33.4,99.3,33.9,99.6,34.4z"/>
	</g>
	<path class="st1" d="M124.6,187.1c0,3.5-2.7,6.8-8.8,6.8c-2.7,0-5.6-0.6-7.6-1.7l2.2-4.8c1.7,1,3.5,1.4,5.2,1.4
		c1.5,0,2.5-0.5,2.5-1.5c0-0.8-0.6-1.4-2.9-1.4h-5.6l1-11.8h12.9v4.9h-7.5l-0.1,1.9h1C122.4,181,124.6,183.7,124.6,187.1z"/>
	<path class="st1" d="M107.6,187.3c0,3.3-2.7,6.6-8.8,6.6c-2.7,0-5.6-0.6-7.6-1.7l2.2-4.8c1.7,1,3.6,1.4,5.2,1.4
		c1.5,0,2.5-0.5,2.5-1.5c0-0.8-0.6-1.3-2.3-1.3h-2.6v-4L99,179h-6.9v-4.9h14.4v4l-3.6,3.6C106,182.5,107.6,184.6,107.6,187.3z"/>
	<path class="st1" d="M63.2,174.1h6.4v19.4h-5.4l-7.4-8.8v8.8h-6.4v-19.4h5.4l7.4,8.8V174.1z M70.9,178.5c0-2.7,2.4-4.7,5.6-4.7
		c3.3,0,5.6,1.9,5.6,4.7s-2.3,4.7-5.6,4.7C73.3,183.2,70.9,181.3,70.9,178.5z M71.5,184.6h10.1v3.6H71.5V184.6z M75.1,178.5
		c0,1.1,0.6,1.6,1.4,1.6s1.4-0.6,1.4-1.6c0-1.1-0.6-1.6-1.4-1.6S75.1,177.4,75.1,178.5z"/>
	<path class="st4" d="M137,151.7v10.5h-13.1v-10.5h1.5v9.2h4.4v-9.2h1.5v9.2h4.4v-9.2H137z"/>
	<path class="st4" d="M105.8,157c0-3.1,2.4-5.4,5.6-5.4c3.2,0,5.6,2.3,5.6,5.4c0,3.1-2.4,5.4-5.6,5.4
		C108.2,162.3,105.8,160,105.8,157z M115.4,157c0-2.3-1.7-4-4.1-4c-2.4,0-4.1,1.7-4.1,4c0,2.3,1.7,4,4.1,4
		C113.7,161,115.4,159.3,115.4,157z"/>
	<path class="st4" d="M99.7,151.7v10.5h-1.5v-4.7h-6v4.7h-1.5v-10.5h1.5v4.5h6v-4.5H99.7z"/>
	<path class="st4" d="M76.8,151.7l-4.7,8.6c-0.7,1.4-1.8,2.1-2.9,2.1c-0.4,0-0.9-0.1-1.4-0.3l0.4-1.2c0.3,0.1,0.7,0.2,1,0.2
		c0.6,0,1.2-0.3,1.6-1l0.2-0.4l-4.2-8h1.6l3.4,6.7l3.5-6.7H76.8z"/>
	<path class="st4" d="M50.5,157c0-3.1,2.4-5.4,5.6-5.4c3.2,0,5.6,2.3,5.6,5.4c0,3.1-2.4,5.4-5.6,5.4C52.9,162.3,50.5,160,50.5,157z
		 M60.2,157c0-2.3-1.7-4-4.1-4c-2.4,0-4.1,1.7-4.1,4c0,2.3,1.7,4,4.1,4C58.5,161,60.2,159.3,60.2,157z"/>
	<path class="st4" d="M42.2,162.2l0-7.6l-3.8,6.4h-0.7l-3.8-6.3v7.6h-1.4v-10.5h1.2l4.4,7.4l4.3-7.4h1.2l0,10.5H42.2z"/>
</g>
</svg>
