<svg id="PATTERN" xmlns="http://www.w3.org/2000/svg" xmlns:xlink="http://www.w3.org/1999/xlink" viewBox="0 0 100 100"><defs><style>.cls-1{fill:none;}.cls-2{fill:#B57938;}.cls-3{fill:url(#New_Pattern);}</style><pattern id="New_Pattern" width="100" height="100" patternUnits="userSpaceOnUse" viewBox="0 0 100 100"><rect class="cls-1" width="100" height="100"/><path class="cls-2" d="M59.08,96.67c.62.28,1.25.53,1.89.76.35.13-.16,1.62-.21,1.9a15.78,15.78,0,0,0-.5,3c0,.39.51.06.62-.07,1.91-2.53,4.79-4.12,6.82-6.53.87-1,1.58-.57,2.61-.36.78.16,1.62.18,2.41.29A28,28,0,0,1,78,96.83c.35.12,1-.57.56-.78a7.54,7.54,0,0,0-2.43-.6c-1-.14-2-.45-3-.6s-2.17-.23-3.25-.49a2.57,2.57,0,0,0-1.64.13c-.63.24-1.15,1.12-1.56,1.59-.63.72-1.49,1.32-2.19,2a38.44,38.44,0,0,0-4.13,4L61,102a21.16,21.16,0,0,1,1-5c0-.1,0-.25-.11-.28-.81-.23-1.59-.53-2.42-.68-.22,0-.69.4-.38.54Z"/><path class="cls-2" d="M58.85,96.94c-.08-.1-.22.74-.22.85,0,.3.23.39.46.46.9.3.17,1.47,0,2.14a14.55,14.55,0,0,0-.4,2.07c-.11.87.25,2,1.21,2.18a2.44,2.44,0,0,0,1.85-.83c.76-.71,1.35-1.54,2-2.31,1.07-1.19,2.48-1.92,3.46-3.22.29-.38.55-.77.87-1.13s1.18-.17,1.66,0a12,12,0,0,0,2,.36,18.27,18.27,0,0,1,2.85.6c1,.28,2,.24,2.88.59.33.12.67-.28.75-.55.17-.52.37-1,.56-1.53l-.6.43h.23c.22,0,.84-.52.52-.72l-.16-.11c-.29-.18-.64.12-.77.38a10.08,10.08,0,0,0-.66,1.76l.76-.55c-1.21-.42-2.53-.41-3.76-.75s-2.53-.38-3.78-.64c-.64-.13-1.51-.63-2.17-.25a7.23,7.23,0,0,0-2,2.21c-.81,1.07-2.11,1.74-3.05,2.7-.58.61-1.07,1.32-1.64,1.93-.93,1-2.18,1.19-2.32-.53-.12-1.42.61-3.16,1-4.49,0-.09,0-.23-.1-.26-.46-.12-1-.24-1-.82,0-.11.08-.39,0-.48s-.68.28-.5.51Z"/><path class="cls-2" d="M67.17,100.38a5.09,5.09,0,0,1,.77,1.59c0,.28.3.2.48.09a25.64,25.64,0,0,1,3.18-1.31l-.38-.24c-.31,1.12-.89,2.14-1.24,3.25-.14.45-.24.89-.4,1.33-.27.75-.89.26-1.42,0-.21-.1-.51.19-.58.36-.19.41-.26.85-.45,1.27,0,.1-.08.3.07.34,1.62.42,3.16,1.06,4.76,1.51.26.07.51-.2.58-.43a4.89,4.89,0,0,1,.64-1.22c.07-.1.14-.3,0-.37-.62-.26-1.78-.37-1.33-1.39.27-.6.45-1.22.66-1.84a41.67,41.67,0,0,0,1.33-4.24c0-.11,0-.23-.11-.27-.7-.3-1.51-.25-2.25-.54-.31-.12-.91.15-1.2.27a16.17,16.17,0,0,1-2.38.95c-.4.09-.84,1-.22.87,1.21-.28,2.45-1.43,3.71-1.08a5,5,0,0,0,1.08.19c1,0,.35,1,.15,1.68-.48,1.51-1,3-1.59,4.48-.44,1.21.83,1.29,1.74,1.49,0-.12,0-.24,0-.36a3.84,3.84,0,0,0-.89,1.55l.59-.43a20.6,20.6,0,0,1-2-.76,27.57,27.57,0,0,0-2.74-.73l.06.34c.21-.42.29-.86.49-1.27l-.58.35c1,.52,1.83.8,2.43-.33a9.39,9.39,0,0,0,.7-1.92c.31-1.11.92-2.11,1.19-3.24.06-.26-.17-.35-.38-.25-1.11.55-2.28.79-3.37,1.44h.47a2.88,2.88,0,0,0-1-1.56c-.18-.17-.62.22-.5.42Z"/><path class="cls-2" d="M94.89,61.42a2.91,2.91,0,0,0-3.22,1.51c-.75,1.31.59,2.4,1.87,2.14,1-.22,2.72-1,2.78-2.29a1.28,1.28,0,0,0-2.15-1,.4.4,0,0,0-.14.38c.14.36.79.27,1.1.4.92.38-.29,1.22-.68,1.41-.67.33-2,.35-2.07-.63s1.42-1.2,2.09-1.25c.22,0,.81-.58.42-.69Z"/><path class="cls-2" d="M93.27,61.85a9.64,9.64,0,0,0-1.5,2.31c-.14.42.42.27.58.11a31.1,31.1,0,0,0,2.45-2.42l-.53-.09a23.23,23.23,0,0,0-1.78,2.51c-.11.26.06.52.35.35a10.25,10.25,0,0,0,2.4-2.25l-.54-.2c-.18.29-1.85,2.13-1.12,2.4s1.79-1.38,2.2-1.8l-.4-.41a5.3,5.3,0,0,0-1.33,2.1c-.12.48.5.2.64,0,.43-.58.74-1.22,1.17-1.8s-.28-.61-.57-.21a6,6,0,0,1-.5.63l-.39.41-.19.19c-.27.25,0,0,0,.24,0-.24.46-.73.59-.92a7.47,7.47,0,0,0,.51-.74c.28-.48-.4-.35-.6-.1a6.39,6.39,0,0,1-1.87,1.76l.34.35a8.85,8.85,0,0,1,1-1.44,3.85,3.85,0,0,0,.75-1.16c.15-.46-.51-.11-.62.08a4.37,4.37,0,0,1-1,.92,16.53,16.53,0,0,1-1.27,1.11l.44.28a19.42,19.42,0,0,1,1.33-2c.35-.51-.28-.59-.55-.21Z"/><path class="cls-2" d="M96.27,63c.5-.85.87-1.76,1.32-2.64a7.52,7.52,0,0,0,1.11-2.47c0-.29-.38,0-.44,0-1.2,1.44-1.67,3.41-2.49,5.06-.21.41.36.24.5,0Z"/><path class="cls-2" d="M100.6,63.47A2.92,2.92,0,0,0,97.39,65c-.75,1.31.59,2.4,1.87,2.14,1-.22,2.72-1.05,2.78-2.29a1.28,1.28,0,0,0-2.15-1,.4.4,0,0,0-.14.38c.13.36.79.27,1.1.4.92.38-.29,1.22-.68,1.41-.67.33-2,.35-2.07-.63s1.42-1.2,2.09-1.25c.22,0,.81-.58.41-.69Z"/><path class="cls-2" d="M99,63.9a9.64,9.64,0,0,0-1.5,2.31c-.14.42.42.27.58.11a32.92,32.92,0,0,0,2.45-2.42l-.53-.09a23.23,23.23,0,0,0-1.78,2.51c-.11.26.05.52.34.35A10.1,10.1,0,0,0,101,64.42l-.54-.2c-.18.29-1.85,2.13-1.12,2.4s1.79-1.38,2.2-1.8l-.4-.41a5.3,5.3,0,0,0-1.33,2.1c-.12.48.5.2.64,0,.43-.58.74-1.22,1.17-1.8s-.28-.61-.57-.21a7.68,7.68,0,0,1-.5.63l-.39.41-.2.19c-.26.25,0,0,0,.24,0-.24.45-.73.59-.92a7.47,7.47,0,0,0,.51-.74c.28-.48-.4-.36-.6-.1A6.31,6.31,0,0,1,98.54,66l.35.35a8.85,8.85,0,0,1,1-1.44,3.82,3.82,0,0,0,.74-1.16c.16-.46-.5-.11-.61.08a4.37,4.37,0,0,1-.95.92c-.42.38-.82.77-1.27,1.11l.44.28a20.55,20.55,0,0,1,1.33-2c.35-.51-.28-.59-.55-.21Z"/><path class="cls-2" d="M98.49,58c.93.41,2,.51,2.91.85a6.17,6.17,0,0,0,2.63.54c.22,0,.85-.59.43-.73-.79-.27-1.62-.42-2.42-.69a23.7,23.7,0,0,0-3.14-.55c-.25,0-.74.44-.41.58Z"/><path class="cls-2" d="M97.92,59.26a28,28,0,0,0,3,.9,9.06,9.06,0,0,0,2.78.64c.18,0,.61-.35.4-.55a5.85,5.85,0,0,0-2.56-1c-1-.29-2.12-.41-3.16-.68-.29-.07-.82.5-.46.65Z"/><path class="cls-2" d="M99,57.84a9.49,9.49,0,0,0-.94.85.36.36,0,0,0-.14.37.12.12,0,0,0,.08.09.33.33,0,0,0,.3-.08l.88-.75c.12-.1.3-.29.23-.47s-.31-.1-.41,0Z"/><path class="cls-2" d="M100,58.07a5.76,5.76,0,0,0-1.09.94c-.13.16,0,.36.17.27a6.65,6.65,0,0,0,1.11-.69c.36-.26.29-.86-.19-.52Z"/><path class="cls-2" d="M11.39,13.17a42.75,42.75,0,0,0,5.22-3.74c.33-.3.62-.65.92-1a2.55,2.55,0,0,1,1.78-1,5.72,5.72,0,0,1,.88.65c.38.33.77.65,1.19.95s1.3.45.77,1c-1.46,1.49-3.58,2.29-5.16,3.66a9.45,9.45,0,0,0-.81.86c-.82.94-1.69.67-2.51.1a15,15,0,0,1-2.32-1.88c-.24-.26-.86.34-.62.61a13.08,13.08,0,0,0,3,2.32,1.86,1.86,0,0,0,2.32-.28,21.38,21.38,0,0,1,3.59-3.05c1-.65,2.7-1.33,3.28-2.45.51-1-.6-1.23-1.27-1.7-1-.69-1.7-1.84-3-1.38s-2,1.93-3,2.72c-1.39,1.15-2.94,2.13-4.41,3.19-.25.18-.2.59.14.36Z"/><path class="cls-2" d="M10.66,13a9.15,9.15,0,0,0-.08,2.4c0,.67-.23,1.94.13,2.52.12.18.39,0,.45-.17a5.75,5.75,0,0,0,.06-2,15.28,15.28,0,0,1,0-2.87c.09-.43-.5-.1-.57.15Z"/><path class="cls-2" d="M14.44,16.07c-.15,1.3.17,2.58.11,3.88l.5-.5c-.74,0-1.27-.58-1.84-1a4.11,4.11,0,0,0-.9-.42c-.39-.16-.71-.44-1.1-.61s-.91.57-.53.73.73.43,1.11.61a6.25,6.25,0,0,1,1.13.56,2.78,2.78,0,0,0,1.8.78.57.57,0,0,0,.5-.51,13.47,13.47,0,0,0-.13-1.79c-.08-.67-.05-1.34-.14-2,0-.34-.49,0-.51.25Z"/><path class="cls-2" d="M15.15,20c1.35-1.2,2.66-2.47,4-3.68s2.61-1.9,3.82-3c.36-.32,0-.65-.33-.34-1.1,1-2.38,1.73-3.48,2.69-1.49,1.28-2.84,2.71-4.26,4.06-.27.25,0,.49.25.25Z"/><path class="cls-2" d="M22.6,9.72a17.56,17.56,0,0,1-.08,3.48c-.09.32.31.22.44.08a1.54,1.54,0,0,0,.22-1.21c0-.86-.11-1.7-.17-2.55,0-.27-.41,0-.41.2Z"/><path class="cls-2" d="M18.23,13.09c.1,1.19-.21,2.44.26,3.57.12.3.67-.15.57-.4-.46-1.08-.17-2.29-.41-3.42,0-.21-.43.1-.42.25Z"/><path class="cls-2" d="M18.59,13.1c-.11-.3-.38-.39-.66-.5a6,6,0,0,1-1.31-.88,11.5,11.5,0,0,0-2-1c-.18-.09-.45.19-.47.35-.09.7.93.82,1.42,1a10.77,10.77,0,0,1,1.27.89c.38.24,1,.22,1.31.51s.52-.19.45-.38Z"/><path class="cls-2" d="M15.78,9.67l.05,0-.08-.2a3.83,3.83,0,0,0,0,1.65,3.46,3.46,0,0,0,.33,1.44c.12.17.38-.15.41-.25A2.78,2.78,0,0,0,16.38,11a5.15,5.15,0,0,1-.1-1.66c0-.29-.4,0-.46.06l-.05.06c0,.07-.1.2,0,.25Z"/><path class="cls-2" d="M16.79,8.89A11.23,11.23,0,0,1,16.9,11c0,.54-.25,1.37.1,1.82.1.13.32-.1.36-.18a4.53,4.53,0,0,0,.17-1.94,8.52,8.52,0,0,0-.25-2.08c-.07-.24-.52.1-.49.29Z"/><path class="cls-2" d="M18.24,7.84c0,1,0,2,0,3a17.12,17.12,0,0,0-.08,2.58c0,.28.39,0,.45-.12a5.22,5.22,0,0,0,.29-2.36c0-1.12,0-2.24,0-3.36,0-.37-.58,0-.59.29Z"/><path class="cls-2" d="M20,8.55c0,.56,0,1.12,0,1.69s-.19,1.21-.16,1.82c0,.22.29,0,.35,0,.74-1.08.48-2.55.4-3.77,0-.39-.63,0-.62.3Z"/><path class="cls-2" d="M21.36,9.3a16.44,16.44,0,0,0-.07,2.1c0,.27.36,0,.39-.14A7,7,0,0,0,22,9c0-.4-.64,0-.64.31Z"/><path class="cls-2" d="M18.53,14.8c.64.13,1.5.46,2.08.07.07,0,.19-.19.14-.29l-.05-.1a.17.17,0,0,0-.16-.1,15.63,15.63,0,0,1-1.68-.12c-.22,0-.6.49-.33.54Z"/><path class="cls-2" d="M18.59,13.07c.54.17,1.07.36,1.6.55a2.39,2.39,0,0,0,1.58.26c.1,0,.32-.19.24-.32-.22-.37-.76-.4-1.16-.52-.6-.2-1.19-.42-1.8-.6-.3-.09-.79.53-.46.63Z"/><path class="cls-2" d="M20.57,12.17a7,7,0,0,1,2.06.68.29.29,0,0,0,.31,0,.59.59,0,0,0,.31-.31c.06-.13.07-.26-.06-.34A7.5,7.5,0,0,0,21,11.56c-.29-.07-.76.52-.44.61Z"/><path class="cls-2" d="M21.57,11.2a3.09,3.09,0,0,0,1.65.34c.11,0,.34-.24.22-.35S23,11,22.76,11a6.15,6.15,0,0,1-.87-.22c-.21-.06-.56.36-.32.45Z"/><path class="cls-2" d="M73.8,18.42c.92,2,1.86,4,2.71,6a.15.15,0,0,0,.15.1h.08a.53.53,0,0,0,.46-.39C77.29,23.6,79,23,79.43,22.7c1.08-.68,2.06-1.48,3.19-2.09a50.87,50.87,0,0,1,6.09-2.82,12.9,12.9,0,0,0,2.75-1.56c1-.68,2.23-.92,3.2-1.61,1.84-1.3,4-1.89,5.88-3.09.34-.22.26-.75-.17-.47A21.86,21.86,0,0,1,97,12.7c-1.17.49-2.06,1.31-3.2,1.84a22.46,22.46,0,0,0-3.23,1.76A23.36,23.36,0,0,1,86.62,18a35.28,35.28,0,0,0-5.94,3.25,30.17,30.17,0,0,1-3.15,2,1.61,1.61,0,0,0-1,1.07l.46-.39S75.9,21.23,75.78,21c-.49-1-1-1.94-1.48-2.92-.13-.26-.6.14-.5.36Z"/><path class="cls-2" d="M73.91,18.51a29.85,29.85,0,0,0,6.14-2.87c1-.54,2.12-1,3.12-1.6a21.45,21.45,0,0,1,3.57-1.91,21.55,21.55,0,0,0,6.07-3.52,13,13,0,0,1,4-2.1c.79-.28,1.5-.7,2.26-1,.19-.07.58-.69.17-.66H99c-.31,0-.76.73-.34.71h.15c.06-.23.11-.45.17-.67a31.77,31.77,0,0,0-5.49,2.54C92.67,8,92,8.71,91.1,9.26a28,28,0,0,1-3.63,1.93c-1,.45-2,.8-3,1.32-1.12.6-2.1,1.41-3.26,2C78.83,15.63,76.57,17.14,74,18c-.21.08-.51.61-.13.52Z"/><path class="cls-2" d="M98.85,5.57c.36.83.75,1.64,1.11,2.47a7.27,7.27,0,0,0,.62,1.17c.37.51.45,1.2.91,1.62.21.2.7-.29.5-.5-.4-.42-.51-1.11-.83-1.61a11.92,11.92,0,0,1-.72-1.37,5.11,5.11,0,0,0-1.22-2.09c-.15-.12-.44.14-.37.31Z"/><path class="cls-2" d="M74.79,18.07a7,7,0,0,0,.53,1.26c.18.31.69-.16.6-.43-.13-.44-.35-.84-.51-1.27s-.72.16-.62.44Z"/><path class="cls-2" d="M76.25,17.47c.16.35.25.82.68.84a.37.37,0,0,0,.31-.27c.11-.4-.15-.68-.33-1s-.79.18-.66.47Z"/><path class="cls-2" d="M77.62,16.91a2,2,0,0,0,.55.93c.2.15.55-.16.52-.38a3.39,3.39,0,0,0-.4-1c-.16-.35-.81.19-.67.49Z"/><path class="cls-2" d="M79.15,16.07c.14.32.27.67.66.65a.39.39,0,0,0,.33-.28c.08-.39-.14-.51-.31-.86s-.81.18-.68.49Z"/><path class="cls-2" d="M80.79,15.32c.18.39.39.75.6,1.12a1.85,1.85,0,0,0,.62.76c.16.09.41-.19.39-.34-.05-.69-.72-1.34-1.05-1.94-.15-.29-.68.16-.56.4Z"/><path class="cls-2" d="M82.32,14.34c.17.32.25.63.63.65a.39.39,0,0,0,.34-.29c.1-.41-.13-.54-.38-.85s-.71.26-.59.49Z"/><path class="cls-2" d="M83.67,13.48c.18.33.34.79.71.93s.53-.25.47-.46a4.46,4.46,0,0,0-.6-1c-.15-.24-.72.26-.58.5Z"/><path class="cls-2" d="M85.2,12.73c.27.27.37.74.76.83a.42.42,0,0,0,.47-.4,1.54,1.54,0,0,0-.67-1c-.26-.2-.8.34-.56.56Z"/><path class="cls-2" d="M86.88,12a2.38,2.38,0,0,0,.69.85c.23.15.51-.29.48-.48a2.61,2.61,0,0,0-.54-.9c-.18-.26-.79.28-.63.53Z"/><path class="cls-2" d="M88.7,11.32l.62,1.09a1.7,1.7,0,0,0,.61.76c.17.09.38-.19.39-.33a4.56,4.56,0,0,0-.9-2c-.2-.37-.89.21-.72.52Z"/><path class="cls-2" d="M90.29,10.35a1.26,1.26,0,0,0,.35.5c.18.14.49-.14.47-.33a1.61,1.61,0,0,0-.22-.6c-.16-.31-.74.18-.6.43Z"/><path class="cls-2" d="M91.75,9.3a4,4,0,0,0,.7.93c.13.13.36-.15.33-.28a4.91,4.91,0,0,0-.4-1.11c-.16-.33-.79.2-.63.46Z"/><path class="cls-2" d="M92.88,8.27c.27.51.45,1.15,1,1.47.16.1.45-.21.42-.36a5.36,5.36,0,0,0-.72-1.58c-.18-.33-.8.19-.66.47Z"/><path class="cls-2" d="M94.34,7.44A3.39,3.39,0,0,0,95,8.51c.21.19.57-.22.51-.43A6.3,6.3,0,0,0,95,7c-.18-.35-.82.19-.67.48Z"/><path class="cls-2" d="M95.46,7c.2.38.39.75.57,1.13a2.63,2.63,0,0,0,.63,1c.17.13.47-.15.46-.33a6.57,6.57,0,0,0-1-2.23c-.18-.33-.8.19-.66.47Z"/><path class="cls-2" d="M97.82,9.1c0,.4,0,.72.5.77a.75.75,0,0,0,.81-.7A.69.69,0,0,0,97.77,9c-.16.41.36.26.48,0,0-.06.1-.05.16,0s.16.28.14.41l.07-.14a.44.44,0,0,1-.25-.11c-.08-.05-.09-.21-.11-.29-.05-.24-.43.12-.44.26Z"/><path class="cls-2" d="M81.85,30.41c-.16,2.74-.75,5.43-1,8.17a40.51,40.51,0,0,1-2,8.43.2.2,0,0,0,.18.27,10.33,10.33,0,0,1,1.76,0,10.39,10.39,0,0,1,1.65.71,9.22,9.22,0,0,0,1.93.47,14.19,14.19,0,0,1,1.91.62,14.75,14.75,0,0,0,1.46.23c.56.13,1,.49,1.58.57.89.12,2.29-.12,3,.51.29.25.73-.26.74-.53a30.1,30.1,0,0,1,.76-4.81c.31-1.56.48-3.14.73-4.71s.62-3,.84-4.53a27.07,27.07,0,0,1,.8-4.2c.16-.5-.62-.16-.71.17a31.64,31.64,0,0,0-.77,4.2c-.24,1.69-.66,3.34-1,5s-.48,3.14-.8,4.7a24.16,24.16,0,0,0-.68,4.55l.73-.53a3.62,3.62,0,0,0-2.1-.49,29.61,29.61,0,0,1-4.13-.83c-.66-.13-1.25-.49-1.92-.61a14.43,14.43,0,0,1-1.94-.47c-.56-.2-1.07-.51-1.64-.71a6.49,6.49,0,0,0-1.92-.08l.18.27a42.83,42.83,0,0,0,2.07-8.16c.33-2.81,1-5.72.9-8.55,0-.38-.57,0-.59.28Z"/><path class="cls-2" d="M82.1,30.07a12.51,12.51,0,0,1,3.72.59,10.24,10.24,0,0,0,3.26.36,5.91,5.91,0,0,1,1.78.1c.49.12.91.44,1.45.56a17.34,17.34,0,0,1,3.26.84c.35.15,1-.59.56-.78a15.93,15.93,0,0,0-3.28-.83,11.72,11.72,0,0,0-3-.71c-.62,0-1.24.08-1.86.06a15.51,15.51,0,0,1-2.5-.55,6.57,6.57,0,0,0-3.2-.16c-.16.05-.53.56-.19.52Z"/><path class="cls-2" d="M83.81,32.05c-.34.78-.39,1.7-.79,2.44-.08.14,0,.32.13.33a45.82,45.82,0,0,1,4.93,1c.43.09,4.11,1.36,4.42.63l.63-.15c-.11-.78.59-1.88.73-2.67l-.67.24v0l.5-.5a15.18,15.18,0,0,1-5.18-1.12,5.07,5.07,0,0,0-2.06-.43c-.83,0-1.57-.29-2.37-.29-.36,0-.86.79-.38.79.65,0,1.25.31,1.91.33a7.27,7.27,0,0,1,2.68.53,13,13,0,0,0,5.08.86.55.55,0,0,0,.5-.5v0c0-.41-.63,0-.67.25-.15.92-.86,1.9-.74,2.83.05.39.54,0,.63-.16a1.18,1.18,0,0,0,.07-.2c0-.08,0-.22-.09-.24-.73-.16-1.47-.1-2.2-.24-.91-.17-1.79-.51-2.71-.7a35.37,35.37,0,0,0-4.69-.93c0,.14,0,.28.08.42a9.3,9.3,0,0,0,.83-2.6c.11-.42-.48-.14-.57.07Z"/><path class="cls-2" d="M82.77,37.33c-.43.52-.68,1.41,0,1.81a1.36,1.36,0,0,0,1.94-.48,1.16,1.16,0,0,0-.54-1.72,1.08,1.08,0,0,0-1.42.83c-.1.26.27.17.36.07.24-.26.22-.33.59-.24a.64.64,0,0,1,.48.73c0,.52-.69.27-1,.09a.71.71,0,0,1-.12-1c.24-.38-.18-.39-.38-.14Z"/><path class="cls-2" d="M87.64,37.67c-1-.62-2.13,2.1-.23,2.17.76,0,1.17-.79,1.14-1.45s-.51-1.25-1.15-.81c-.17.11-.35.54,0,.48.58-.09.75,1.14.3,1.16a.68.68,0,0,1-.75-.59c0-.26.05-.6.35-.5s.57-.32.33-.46Z"/><path class="cls-2" d="M90.65,38.18c-.59.34-1.13.84-.94,1.57s1.33.88,1.88.52a1.39,1.39,0,0,0,.6-1.83,1.13,1.13,0,0,0-1.73-.26c-.06.07-.12.23,0,.3s.47.1.67.18a.73.73,0,0,1,.53.77c-.1.78-2.28.06-.9-.84.2-.13.24-.59-.07-.41Z"/><path class="cls-2" d="M82.14,40.84c-.48.49-.93,1.44-.11,1.89s1.38-.17,1.7-.81a.93.93,0,0,0-.67-1.43,1.13,1.13,0,0,0-.81,0c-.18.09-.48.36-.36.59s.19.06.28,0c.29-.19,1,.14,1.1.42s-.06.41-.15.55-.33.21-.55.13c-.55-.19-.43-.82-.14-1.17s-.1-.37-.29-.18Z"/><path class="cls-2" d="M86.82,41.2c-1.16-.17-1.93,1.77-.68,2.06.76.18,1.32-.55,1.45-1.21.06-.3.07-.73-.25-.89a1,1,0,0,0-1.11.2c-.08.09-.2.27-.09.39s.72-.1.78.31-.17.68-.5.45a.56.56,0,0,1-.22-.5c0-.23.25-.26.42-.29s.52-.47.2-.52Z"/><path class="cls-2" d="M90.25,42a1.43,1.43,0,0,0-1,1.31c0,.74.77,1,1.4.9a1.59,1.59,0,0,0,1.24-1.46c.07-.84-.82-1.09-1.47-1.07-.24,0-.74.48-.4.66a2.91,2.91,0,0,0,.72.17c.35.09.64.78.22,1a1,1,0,0,1-1-.17c-.32-.29,0-.77.3-.9s.36-.58,0-.42Z"/><path class="cls-2" d="M82,44c-.72-.63-1.4,1.13-1.12,1.68a1.08,1.08,0,0,0,1.33.46,1.94,1.94,0,0,0,1-1.28c.11-.47-.3-.85-.68-1s-1,.15-.87.57c.05.15.32.15.45.2a.51.51,0,0,1,.33.69c-.2.49-.73.14-.9-.2-.05-.1,0-.62.11-.61s.61-.29.4-.47Z"/><path class="cls-2" d="M85.69,44.77c-.5.22-1.26.59-1.38,1.2-.14.8.62,1.24,1.33,1.17A1.44,1.44,0,0,0,87,45.89a1,1,0,0,0-1.35-1.06c-.17,0-.67.55-.32.66s.55,0,.79.2a.62.62,0,0,1,.16.57c0,.22-.38.23-.56.24-.34,0-.87-.25-.81-.67s.59-.49.82-.59.38-.63,0-.47Z"/><path class="cls-2" d="M89.69,45.88a1.09,1.09,0,0,0-1.07,1.23,1.22,1.22,0,0,0,1.37,1,1.61,1.61,0,0,0,1.28-2,1.16,1.16,0,0,0-2,0,.14.14,0,0,0,.12.2c.39,0,.65-.11,1,.14a.52.52,0,0,1-.31.94c-.46,0-1.26-.88-.56-1.06.17,0,.49-.52.19-.49Z"/><path class="cls-2" d="M58.18,51.85c2.16-2.05,4.39-4,6.52-6.11,1.07-1.05,2.09-2.11,3.22-3.09.4-.35.76-.74,1.13-1.12a5.58,5.58,0,0,1,.61-.58c.75-.63,1,.44.5.89-1.86,1.87-3.86,3.57-5.65,5.51s-3.78,3.4-5.63,5.17c-.26.24,0,.5.25.25,1-1,2.13-1.86,3.19-2.79,1.38-1.22,2.67-2.56,4-3.88s2.43-2.22,3.63-3.36c.64-.6,2-1.61,1.58-2.63-.28-.73-1.69.09-2,.33a5.55,5.55,0,0,0-1,1.06,20.44,20.44,0,0,1-2.09,2c-2.84,2.65-5.6,5.44-8.39,8.15-.24.24,0,.47.24.24Z"/><path class="cls-2" d="M57.76,51.78a7.49,7.49,0,0,0-.83,1.85c-.06.32.35.06.41-.1.22-.61.54-1.18.77-1.79.09-.25-.28-.07-.35,0Z"/><path class="cls-2" d="M57.17,53.67a7.24,7.24,0,0,0,.73-.38,1.84,1.84,0,0,1,.87-.46c.16,0,.39-.35.17-.35a2.15,2.15,0,0,0-.89.33,6,6,0,0,0-.51.37c-.19.14-.36.19-.49.37s0,.19.12.12Z"/><path class="cls-2" d="M57.36,53.15a.3.3,0,0,0,.37.05.28.28,0,0,0,.2-.23v-.1a.14.14,0,0,0-.14-.14h-.13c-.13,0-.47.28-.3.42Z"/><path class="cls-2" d="M58,51.94c.27-.17.29,0,.31.16s.2.13.3.06.28.15.32.31.12,0,.15,0a.45.45,0,0,0,.22-.61c-.12-.25-.49-.15-.69-.11l.18.11c.07-.7-.75-.49-1,0-.07.15.07.19.18.11Z"/><path class="cls-2" d="M62,49.7c.1,0,.24-.22.1-.22s-.24.22-.1.22Z"/><path class="cls-2" d="M52.32,65.26a86.42,86.42,0,0,1,3.73,9.41c1,3.07,2.44,5.9,3.61,8.89.11.25.54-.13.48-.35a34.84,34.84,0,0,0-1.65-4.13c-.67-1.59-1.3-3.19-1.84-4.84a66.36,66.36,0,0,0-3.88-9.3c-.12-.24-.54.12-.45.32Z"/><path class="cls-2" d="M52.92,65c-.12-.31.13.46.18.6.15.34.28.7.41,1,.32.89.7,1.76,1.06,2.63.73,1.77,1.5,3.53,2.17,5.33a32.63,32.63,0,0,0,2,5.09c.78,1.39,1.48,2.87,2.17,4.31.15.31.68-.17.6-.44-.31-1-1-1.8-1.39-2.74-.47-1.09-1-2.12-1.49-3.22-1-2.32-1.66-4.71-2.63-7-.5-1.18-1-2.37-1.48-3.53a13.62,13.62,0,0,0-1-2.41c-.54-.74-1.41-.06-1,.68.14.24.55-.13.47-.34Z"/><path class="cls-2" d="M59.83,83.55c.19.57.33,1.07,1.05.83.17-.06.43-.48.1-.43-.53.09-.59-.25-.81-.64-.09-.18-.39.09-.34.24Z"/><path class="cls-2" d="M60.81,84.33c.16.34.63.55.87.85a1.29,1.29,0,0,1-.58,2.13l.22.34c.26-.38.54-.77.28-1.22s-1.35-1.38-.92-1.93c.26-.33-.23-.36-.4-.07-.69,1.21,1.54,1.81.61,3.06-.1.14-.12.46.14.37a2.07,2.07,0,0,0,1.2-3.14c-.27-.47-.6-.53-1-.78-.16-.09-.46.23-.39.39Z"/><path class="cls-2" d="M61.64,86.42c0-.07,0-.26,0-.32l-.49.18c.12.09.23.2.39.18A.52.52,0,0,0,62,86.1s0,0,0-.08l-.49.3c.13.15.15.14.36.15s.43-.26.3-.43a.44.44,0,0,0-.2-.18c-.15-.11-.32,0-.42.16l-.06.07.35-.21s-.11-.1-.14-.13-.46.11-.54.26a1,1,0,0,0,0,.72c.08.26.53-.12.51-.31Z"/><path class="cls-2" d="M52,61a87.49,87.49,0,0,1,4.88,8.85c1.37,2.92,3.17,5.55,4.72,8.36.13.25.57-.13.48-.34A39.75,39.75,0,0,0,59.89,74c-.88-1.5-1.7-3-2.44-4.57a67.26,67.26,0,0,0-5.07-8.79c-.11-.17-.53.2-.42.37Z"/><path class="cls-2" d="M52.56,60.67c1.6,3.07,3.56,6.18,5.14,9.35a40.91,40.91,0,0,0,2.17,4.15c1,1.46,2,2.87,3,4.33.15.24.68-.25.57-.48-.43-.91-1.21-1.67-1.73-2.54s-1.26-1.92-1.83-2.91c-1.26-2.2-2.27-4.53-3.55-6.73-.64-1.1-1.25-2.22-1.92-3.31a13.25,13.25,0,0,0-1.51-2.44c-.55-.59-1.16.41-.74,1,.13.18.53-.2.44-.38Z"/><path class="cls-2" d="M61.73,78.2c.28.57.48,1,1.19.68.14-.07.34-.49,0-.4-.53.16-.63-.18-.91-.55-.09-.14-.38.14-.32.27Z"/><path class="cls-2" d="M62.8,78.84c.15.33.69.48,1,.73a1.32,1.32,0,0,1-.24,2.21l.26.27c.22-.42.4-.81.08-1.21S62.34,79.68,62.74,79c.18-.31-.33-.26-.44,0a1.18,1.18,0,0,0,.18,1.07,2.87,2.87,0,0,0,.57.53A1,1,0,0,1,63.26,82c-.12.21.06.37.26.26a2,2,0,0,0,.75-3.25c-.3-.39-.66-.42-1.08-.6-.17-.07-.48.22-.39.39Z"/><path class="cls-2" d="M63.92,80.81c0-.09-.08-.25,0-.34l-.48.29a.58.58,0,0,0,.42.11.51.51,0,0,0,.37-.43v-.07l-.49.35c.14.14.16.14.36.12s.48-.26.31-.42a.93.93,0,0,0-.26-.18c-.12-.07-.32.09-.38.18a.22.22,0,0,1-.05.08l.36-.21a.56.56,0,0,1-.17-.09c-.22-.16-.5.14-.56.34a.87.87,0,0,0,.09.63c.13.28.55-.14.51-.36Z"/><path class="cls-2" d="M75.89,68.1c-.51,1.62-1,3.19-2.94,3.36A4.8,4.8,0,0,1,70.53,71c-1.36-.65-1.81-2.26-1.92-3.64a13.25,13.25,0,0,1,3-9.21,6.36,6.36,0,0,1,6.54-1.59,7.59,7.59,0,0,1,4.88,4.76,5.63,5.63,0,0,1,.3,3.93c-.63,1.56-2.73,1.89-4.17,1.74s-2.55-.62-3.38,1c-.29.58.52.38.71,0,.46-.91,3-.07,3.91-.23A5.59,5.59,0,0,0,83.58,66c1.73-2,.47-5.14-.68-7a7.52,7.52,0,0,0-6.42-3.49,7.4,7.4,0,0,0-5.88,3.24c-2.13,2.83-3.51,7.25-2.47,10.74a4,4,0,0,0,3.74,2.75c2.81.26,4.14-1.79,4.6-4.27.08-.45-.5-.1-.58.14Z"/><path class="cls-2" d="M75.31,68c.42-.9.82-1.52,1.88-1.55a2.79,2.79,0,0,0,1.48-.32,1.65,1.65,0,0,0-.28-2.64c-1.17-.8-2.48.69-3.14,1.49s-1.94,2.6-.61,3.27c.23.11.71-.38.49-.57-1-.89.36-2.4,1-3.07s1.3-1,2-.39c.46.36.83,1.53,0,1.58a4.52,4.52,0,0,0-2,.27,3.25,3.25,0,0,0-1.42,2c-.13.42.48.14.57-.07Z"/><path class="cls-2" d="M72.29,70.23c.55-.63.77-1.44,0-2a1.55,1.55,0,0,0-2,.21,1.19,1.19,0,0,0,.06,1.81,1.27,1.27,0,0,0,1.91-.13c.17-.23,0-.41-.25-.25a.84.84,0,0,1-1.07,0c-.3-.25-.74-.8-.32-1.13a1,1,0,0,1,1.13,0A.83.83,0,0,1,72,70c-.23.29.13.46.34.21Z"/><path class="cls-2" d="M72.32,66.21c.23-.21.57-.53.5-.88a1.46,1.46,0,0,0-.82-.87c-.84-.45-1.88.41-2.15,1.16s.43,1.42,1.08,1.59A1.29,1.29,0,0,0,72,67c.26-.2.61-.56.46-.91s-.38,0-.45.11-.17.3-.22.32a1,1,0,0,1-.6-.06,1.06,1.06,0,0,1-.62-.64c-.2-.51.31-.82.76-.82s1.14.53.78.92,0,.51.25.26Z"/><path class="cls-2" d="M72.85,63.06c.81-.4,1.4-.84,1.21-1.85s-1.31-1.13-2-.82a1.94,1.94,0,0,0-1.28,1.69,1.36,1.36,0,0,0,2,.92c.1-.07.31-.34.11-.42a1.26,1.26,0,0,0-.58,0,1,1,0,0,1-.87-.52c-.28-.46.11-.82.5-1a1.06,1.06,0,0,1,1.28.23,1,1,0,0,1,.21.93c0,.24-.45.4-.63.52s-.22.47.06.34Z"/><path class="cls-2" d="M76.2,60.25a1.53,1.53,0,0,0,.9-2,1.48,1.48,0,0,0-2.24-.69c-.8.44-1.44,1.44-.83,2.28a1.54,1.54,0,0,0,2.55.21c.19-.25.06-.51-.25-.39a1.32,1.32,0,0,1-.75.2,1.6,1.6,0,0,1-.7-.48A.66.66,0,0,1,75,58.21a.92.92,0,0,1,1.2.29.86.86,0,0,1-.07,1.33c-.17.14-.28.61.07.42Z"/><path class="cls-2" d="M80.56,61.43c.61-.39,1.3-.88,1.06-1.73a1.66,1.66,0,0,0-1.94-1.27,2,2,0,0,0-1.47,1.89A1.85,1.85,0,0,0,80,61.92c.19,0,.71-.48.36-.61a2.13,2.13,0,0,1-1.08-.59c-.44-.53-.55-1.2.14-1.57s1.14.31,1.39.75,0,.86-.4,1.2c-.22.16-.19.53.13.33Z"/><path class="cls-2" d="M88,76.05a9.78,9.78,0,0,1,7.16-.21,7.56,7.56,0,0,1,5,4.77c1.66,4.2.38,9.24-3.85,11.3A8.68,8.68,0,0,1,85,88.51c-2.27-4.18-1.06-10,3-12.52.25-.16.3-.7-.09-.49-4.47,2.46-5.64,8.3-3.85,12.81,1.89,4.79,7.8,6.1,12.15,4.11a9.66,9.66,0,0,0,4.84-11.65,11.05,11.05,0,0,0-1.75-3.35,8.28,8.28,0,0,0-3.74-2.25,10.27,10.27,0,0,0-7.65.31C87.67,75.63,87.51,76.28,88,76.05Z"/><path class="cls-2" d="M87.87,76.12a2.17,2.17,0,0,1,2,0c.45.37.37,1.18.29,1.67a19.14,19.14,0,0,1-.89,3.06c-.3.9-.66,2,.39,2.52,1.31.6,3.08.2,4.48.55s1,2.09.88,3.05a7.94,7.94,0,0,1-1,3.18c-1.17,1.87-2.24-2.06-2.43-2.82a15,15,0,0,0-.74-2.45,6.16,6.16,0,0,0-1.6-1.66,19.83,19.83,0,0,1-3.79-4.8c-.19-.34-.68.15-.68.41V79c0,.43.7,0,.7-.33v-.09l-.69.41A20.37,20.37,0,0,0,89,84.13a5.57,5.57,0,0,1,1.85,3.29A12.18,12.18,0,0,0,92,90.67a1.26,1.26,0,0,0,2.12.21,6.32,6.32,0,0,0,1.49-3.3,6.87,6.87,0,0,0,.06-3.4C95.25,82.75,92.57,83,91.47,83c-.64,0-1.7.14-1.85-.79a4.59,4.59,0,0,1,.48-1.87,10.92,10.92,0,0,0,.8-3.36c0-1.79-1.89-2-3.1-1.2-.19.12-.24.53.07.38Z"/><path class="cls-2" d="M100.2,79.35c-.7,0-3.11,1.37-3,2.23.11.57.5.83,1,1.13A3,3,0,0,1,99.67,85c.07.67-.4,2.62.64,2.74.22,0,.66-.47.36-.6-.59-.24-.29-2.32-.35-2.86a3,3,0,0,0-1.23-2c-.33-.26-.69-.44-1-.73s.54-.83.74-.95a11.26,11.26,0,0,0,1.32-.83c.11-.07.34-.43.06-.44Z"/><path class="cls-2" d="M86.65,76.73h0a.49.49,0,0,0-.39.29c-.2.36-.33.77-.5,1.15s-.47.86-.28,1.2c.1.17.32,0,.4-.1A6.14,6.14,0,0,0,86.4,78c.13-.33.22-.66.35-1,0-.07.07-.19,0-.26a.15.15,0,0,0-.09,0Z"/><path class="cls-2" d="M87.74,76.12a10.18,10.18,0,0,1-.91,2.09c-.21.42-.75,1.15-.52,1.63.06.12.22,0,.28,0a8.54,8.54,0,0,0,1-2c.21-.47.75-1.39.6-1.92-.08-.26-.47.11-.5.24Z"/><path class="cls-2" d="M89.14,75.74A25.88,25.88,0,0,0,86.87,81c-.1.35.37.08.45-.06a25.26,25.26,0,0,0,2.29-5.28c.11-.35-.39-.1-.47.06Z"/><path class="cls-2" d="M90.06,77.22c-.57,1.59-1.77,3-2.23,4.57-.07.27.27.1.35,0a13.27,13.27,0,0,0,1.37-2.44,11,11,0,0,0,1-2.26c.09-.35-.41-.07-.47.12Z"/><path class="cls-2" d="M89.33,81a5.49,5.49,0,0,0-.81,1.69c0,.22.22.1.29,0a10.92,10.92,0,0,0,1-1.7c.19-.35-.31-.22-.44,0Z"/><path class="cls-2" d="M90,83.3a1.37,1.37,0,0,0-.27.9c0,.11.19,0,.23,0a2.44,2.44,0,0,0,.49-.86c.18-.37-.33-.23-.45,0Z"/><path class="cls-2" d="M91.15,83.43c-.17.31-.29.65-.44,1a2.35,2.35,0,0,0-.32.87c0,.16.21.06.27,0a3.26,3.26,0,0,0,.87-1.94c0-.26-.33,0-.38.09Z"/><path class="cls-2" d="M92.32,83.51c-.26.45-.51.9-.78,1.34a1.93,1.93,0,0,0-.39,1c0,.19.24.08.3,0a4.13,4.13,0,0,0,.7-1,6.61,6.61,0,0,0,.62-1.32c.11-.35-.37-.09-.45.05Z"/><path class="cls-2" d="M93.56,83.53c-.42.59-.71,1.28-1.09,1.9a10.48,10.48,0,0,0-1.18,2.08c-.11.33.34.12.44,0a19.11,19.11,0,0,0,1.37-2.15,5.17,5.17,0,0,0,.82-1.84c0-.27-.27-.13-.36,0Z"/><path class="cls-2" d="M94.54,83.83c-1,1.52-1.73,3.3-2.86,4.73-.25.3.11.44.34.21,1.32-1.3,2-3.28,2.94-4.87.19-.33-.28-.27-.42-.07Z"/><path class="cls-2" d="M95.3,84.38c-.62.23-.88,1.17-1.17,1.69-.69,1.25-1.47,2.45-2.12,3.72-.17.35.27.24.41.07A18.67,18.67,0,0,0,94,87.39c.25-.43.49-.87.73-1.31a5.1,5.1,0,0,1,.66-1.27c.19-.15.31-.57-.07-.43Z"/><path class="cls-2" d="M95.42,85.82h0a.31.31,0,0,0-.25.15c-.42.69-.8,1.41-1.18,2.14A15.85,15.85,0,0,0,92.62,91c-.06.23.26.06.31,0,.52-1,1.12-1.85,1.63-2.8a7.47,7.47,0,0,0,1-2.17c0-.07,0-.12-.09-.13Z"/><path class="cls-2" d="M99.75,79.82c0-.46-.65.24-.68.31s-.21.4-.33.59c-.21.34-.7.76-.69,1.18,0,.1.09.12.17.11.5-.08.85-.8,1.07-1.19.14-.24.48-.7.46-1Z"/><path class="cls-2" d="M99.78,80.15a10.56,10.56,0,0,1-.89,1.48,2.73,2.73,0,0,0-.63,1.12c0,.17.2.11.27.06a6.2,6.2,0,0,0,1-1.28,4.73,4.73,0,0,0,.78-1.45c.13-.41-.47-.12-.57.07Z"/><path class="cls-2" d="M100.49,80.74a7.14,7.14,0,0,0-.82,1.08c-.2.32-.58.68-.61,1.07,0,.11.1.12.18.11.36,0,.61-.44.8-.72s.53-.88.83-1.3-.13-.49-.38-.24Z"/><path class="cls-2" d="M100.64,81.85a9.09,9.09,0,0,0-1.1,1.67c-.11.24.15.23.28.1A8.9,8.9,0,0,0,101.07,82c.29-.39-.21-.46-.43-.16Z"/><path class="cls-2" d="M100.65,83.24c0-.11-.11.1-.11.11l-.33.35a2.3,2.3,0,0,0-.6.88c-.06.24.21.24.35.13a5.53,5.53,0,0,0,.87-1c.12-.15.37-.42.26-.63s-.39,0-.44.16Z"/><path class="cls-2" d="M100.86,84a3,3,0,0,0-.69,1.07c0,.14.1.17.2.13a2.85,2.85,0,0,0,1-1c.34-.45-.24-.51-.5-.18Z"/><path class="cls-2" d="M100.84,85.16c-.29.53-1,.77-1.19,1.31,0,.09-.06.27.09.25.68,0,1.31-1,1.49-1.61.1-.29-.32-.07-.39,0Z"/><path class="cls-2" d="M100.69,86.23c-.27.25-.73.53-.8.93,0,.07,0,.14.09.14.42,0,.76-.49,1-.75s0-.64-.33-.32Z"/><path class="cls-2" d="M94.56,78.88c.28,0,.67-.61.3-.61s-.68.61-.3.61Z"/><path class="cls-2" d="M94.52,80.78c.31,0,.76-.69.33-.69s-.76.69-.33.69Z"/><path class="cls-2" d="M93.9,80.45c.25,0,.59-.54.26-.54s-.58.54-.26.54Z"/><path class="cls-2" d="M93,78.48c.31,0,.77-.7.33-.7s-.76.7-.33.7Z"/><path class="cls-2" d="M97.42,86.42c.3,0,.72-.65.32-.65s-.72.65-.32.65Z"/><path class="cls-2" d="M96.86,88.6c.33,0,.8-.74.35-.74s-.81.74-.35.74Z"/><path class="cls-2" d="M96.36,88.13c.23,0,.56-.52.25-.52s-.57.52-.25.52Z"/><path class="cls-2" d="M85.77,85.23c.36,0,.88-.8.38-.8s-.87.8-.38.8Z"/><path class="cls-2" d="M86.14,87.44c.34,0,.81-.74.36-.74s-.81.74-.36.74Z"/><path class="cls-2" d="M87.69,88.55c.25,0,.61-.56.27-.56s-.62.56-.27.56Z"/><path class="cls-2" d="M88.36,88.72c.25,0,.61-.56.27-.56s-.61.56-.27.56Z"/><path class="cls-2" d="M88.39,86c.32,0,.79-.72.34-.72s-.79.72-.34.72Z"/><path class="cls-2" d="M87.8,86.14c.27,0,.65-.59.29-.59s-.65.59-.29.59Z"/><path class="cls-2" d="M89.07,74.05a12.74,12.74,0,0,0-5.61,5,12.69,12.69,0,0,0-.68,8.29,10.18,10.18,0,0,0,5.07,6.34c2.59,1.43,5.93,1,8.47-.36.22-.12.58-.81.08-.67-1.11.31-2.14.78-3.27,1a7,7,0,0,1-4.41-.54,9.9,9.9,0,0,1-5-5.56,12.49,12.49,0,0,1,0-7.46c.8-2.75,3.28-4.06,5.42-5.64.2-.15.29-.65-.08-.45Z"/><path class="cls-2" d="M89.2,74.14c-.12-.39-.07-.78-.49-1-.27-.12-.68.35-.51.59a1.29,1.29,0,0,1,.27.55.32.32,0,0,0,.27.28c.22,0,.54-.22.46-.45Z"/><path class="cls-2" d="M88.43,73.33a11.16,11.16,0,0,0-5.58,4.85,13.74,13.74,0,0,0-1.18,9.16,10.4,10.4,0,0,0,5.24,7c3.09,1.7,6.49.66,9.74.14.33,0,.66-.78.17-.68-2.89.58-5.9,1.4-8.76.28a10,10,0,0,1-5.35-5.75A13.29,13.29,0,0,1,82.63,80a9.31,9.31,0,0,1,2.56-4c1-.92,2.2-1.48,3.25-2.31.11-.08.3-.52,0-.41Z"/><path class="cls-2" d="M96.07,92.86a1.61,1.61,0,0,0,.34,1.52c.23.19.68-.24.58-.5s-.17-.34-.24-.53a2.35,2.35,0,0,1-.22-.61c0-.29-.41,0-.46.12Z"/><path class="cls-2" d="M90.25,98.32c1.25.52,2.93-.09,4.25-.09.63,0,1.24,0,1.87,0a8.8,8.8,0,0,1,2.36.09c.28.13.78-.48.45-.62a2.46,2.46,0,0,0-1.45,0,18,18,0,0,1-2.2,0c-1.68,0-3.36.28-5,.22-.15,0-.48.34-.25.44Z"/><path class="cls-2" d="M90.46,98.08c.1,0,.25-.23.11-.23s-.26.23-.11.23Z"/><path class="cls-2" d="M90.47,98.07c.07,0,.17-.16.08-.16s-.17.16-.08.16Z"/><path class="cls-2" d="M90.48,98.27a6.14,6.14,0,0,1,4.64-2,3.6,3.6,0,0,1,3.33,1.92c.22.37.92-.25.68-.58a4.34,4.34,0,0,0-4.12-2,5.67,5.67,0,0,0-4.8,2.47c-.15.26.08.35.27.17Z"/><path class="cls-2" d="M94,94.94a5.06,5.06,0,0,0-.1,1.1c0,.33.55,0,.55-.26s0-.66,0-1-.38,0-.41.15Z"/><path class="cls-2" d="M94.64,94.7a2,2,0,0,0,0,1.31c.1.23.41-.09.45-.22a1.86,1.86,0,0,0-.1-1.23c-.08-.16-.28.06-.31.14Z"/><path class="cls-2" d="M38.91,86.7a24.81,24.81,0,0,1,0,4.31c0,.94.06,1.87,0,2.81a4.55,4.55,0,0,1-1.18,2.68,25.24,25.24,0,0,0-2.29,4c-.75,1.58-1.72,3.06-2.48,4.63-.06.12,0,.29.11.3,2.48.13,4.93-.1,7.4-.13s5.13.14,7.71.16c.3,0,.73-.43.52-.72-.68-.94-1.25-1.94-1.91-2.9s-1.73-1.92-2.39-3-1.33-2-2-3A5.86,5.86,0,0,0,41.09,94c-.31-.23-.93.43-.64.64A6.23,6.23,0,0,1,42,96.75c.62,1,1.32,2,1.92,3a24.44,24.44,0,0,0,2,2.53c.8,1,1.4,2.18,2.18,3.2l.51-.71c-2.6,0-5.17-.07-7.77,0s-4.94.23-7.43.19l.12.3c.78-1.74,1.89-3.31,2.69-5a39.41,39.41,0,0,1,2.84-4.66c.83-1.29.52-2.88.57-4.34a21.66,21.66,0,0,0-.09-4.83c-.06-.3-.66.12-.62.37Z"/><path class="cls-2" d="M41.13,93.88a50.89,50.89,0,0,0-.2-7.61c0-.4-.63,0-.63.3,0,2.5.08,5.07.31,7.56,0,.35.5,0,.52-.25Z"/><path class="cls-2" d="M38.91,86.65a2.78,2.78,0,0,0,1.71-.07c.17-.07.53-.64.15-.62a10.27,10.27,0,0,0-1.64.23c-.12,0-.47.38-.22.46Z"/><path class="cls-2" d="M36.49,99.66c.45-.52,1.21-1.5,2.1-.89a2.71,2.71,0,0,1,.52.55,1.3,1.3,0,0,0,1.16.55,1.09,1.09,0,0,0,.44-.2c.63-.35,1-.15,1.54,0,.33.09,1-.4,1.25-.39s.7-.62.3-.64c-.68,0-1.09.46-1.68.22-1-.38-1.66.76-2.49-.06-1.29-1.27-2.39-.62-3.37.7-.15.21.09.32.23.15Z"/><path class="cls-2" d="M39.09,83.73c-.05.38.29.52.61.51a1,1,0,0,0,.93-.77c.3-1-1.66-.81-1.51.12,0,.27.36.08.45,0s.08-.13.21-.13.26.18.23.19-.41,0-.44-.15-.46.14-.48.28Z"/><path class="cls-2" d="M37.65,82.42c.25.84,1.75.14,1.5-.64s-1.89-.08-1.41.6c.12.16.37-.15.4-.24.08-.26.36-.17.45,0s-.51,0-.6-.05-.38.15-.34.29Z"/><path class="cls-2" d="M39,81a.82.82,0,0,0,.87.23c.27-.13.6-.53.47-.85-.28-.67-1.38-.35-1.39.33,0,.38.54,0,.61-.16-.2.12-.24.16-.11.14a.41.41,0,0,1,.22.07c0,.09.05.09.05,0a.64.64,0,0,1-.35-.12c-.17-.12-.53.22-.37.37Z"/><path class="cls-2" d="M36.53,102.24c-.26.47-.26,1,.3,1.23a1.13,1.13,0,0,0,1.33-.58c.58-1.22-1.61-1.78-1.86-.59-.07.32.32.13.42,0,.25-.33,1.09.36.91.51s-.37,0-.49,0a.4.4,0,0,1-.19-.56c.16-.36-.31-.21-.42,0Z"/><path class="cls-2" d="M38.17,101.56c.3.2.54.34.87.1a.79.79,0,0,0,.23-.89c-.1-.28-.47-.24-.67-.13a.81.81,0,0,0-.41.78.13.13,0,0,0,.13.13h.09a.26.26,0,0,0,.2-.15.45.45,0,0,0,.08-.22c.19.08.2.14,0,.15l-.26-.11c-.14-.07-.43.24-.29.34Z"/><path class="cls-2" d="M43.51,103.2a.68.68,0,0,0,1.23.39c.5-.7-.5-1.34-1.11-.93-.09.07-.3.42,0,.42s.69,0,.73.33l.1-.06a.59.59,0,0,1-.19,0A.35.35,0,0,1,44,103c0-.3-.48,0-.48.23Z"/><path class="cls-2" d="M39.48,97.12c.16.46.46.78,1,.68a.89.89,0,0,0,.68-.92c-.16-.79-1.75-.68-1.63.12,0,.23.29.11.4,0s.31-.12.54,0,.31.37-.13.25c-.21-.05-.36-.29-.45-.46s-.46.11-.39.29Z"/><path class="cls-2" d="M12.86,70.68a15.54,15.54,0,0,1,3.54.11c.77.12,1.55-.05,2.32.09a6.44,6.44,0,0,1,2.16,1.28c1.23.83,2.56,1.52,3.83,2.27a15.9,15.9,0,0,0,1.93,1,13.87,13.87,0,0,1,2.3,1.52l.64-.75a11.09,11.09,0,0,0-2.92.2,20.77,20.77,0,0,1-3.05-.23c-.37-.05-.91.74-.4.82.86.12,1.75.17,2.62.23,1,.08,2.17-.41,3.18-.23.34.07,1-.54.57-.79-.59-.36-1.11-.83-1.71-1.15s-1.5-.66-2.22-1.07C24,73,22.36,72.14,20.79,71.1a6.39,6.39,0,0,0-1.6-.87,7.54,7.54,0,0,0-2.07-.06,29.67,29.67,0,0,0-4,0c-.23,0-.59.57-.26.54Z"/><path class="cls-2" d="M12.6,70.71C14.27,71.82,16,72.83,17.68,74s3.66,1.94,5.45,3c.32.19,1-.56.56-.78-1.9-1.07-3.92-1.86-5.74-3.06-.72-.48-1.5-.85-2.24-1.28A10.75,10.75,0,0,0,13,70.26c-.17,0-.6.31-.39.45Z"/><path class="cls-2" d="M15.55,72.26a11.59,11.59,0,0,0-1.4,2.56c-.27,1,.46,1.44,1.09,2.18a9.07,9.07,0,0,0,3.21,2c1.37.61,2.95.26,4.35.66.24.06.46-.16.56-.35a23.3,23.3,0,0,1,1.53-2.53c.25-.35-.15-.53-.39-.25a13.89,13.89,0,0,0-1.76,2.78l.48-.36c-1.16-.17-2.32-.17-3.48-.42a10.44,10.44,0,0,1-3.26-1.69c-.35-.22-2-1.5-1.85-1.95.3-.89,1-1.72,1.41-2.58.18-.4-.34-.34-.49-.09Z"/><path class="cls-2" d="M19.78,74.85c-.36.61-.71,1.23-1.07,1.85a8.74,8.74,0,0,0-.92,1.7c-.12.36.38.26.52.09a21.55,21.55,0,0,0,2.13-3.64c.29-.52-.48-.33-.66,0Z"/><path class="cls-2" d="M20.72,75.43a10.93,10.93,0,0,0-1.42,3.09c-.05.35.37.19.49,0,.6-1,1-2.08,1.56-3.09.26-.51-.46-.33-.63,0Z"/><path class="cls-2" d="M21.53,75.84l-.6,1.22a6.42,6.42,0,0,0-.57,1.29c-.08.41.4.16.53,0a11.73,11.73,0,0,0,1.24-2.51c.24-.5-.44-.32-.6,0Z"/><path class="cls-2" d="M22.54,76.31c-.19.37-.38.73-.54,1.11s.29.29.43.07c.24-.38.48-.77.7-1.18.07-.13.05-.34-.13-.34a.56.56,0,0,0-.46.34Z"/><path class="cls-2" d="M23.19,76.83c-.37.69-.73,1.38-1.07,2.08-.15.33.27.26.4.07a24.1,24.1,0,0,0,1.27-2.14c.08-.13.06-.34-.13-.35a.6.6,0,0,0-.47.34Z"/><path class="cls-2" d="M12.59,70.37A42.75,42.75,0,0,0,10,75c-.17.31.27.27.39.07.92-1.52,2-3,2.8-4.57.24-.46-.36-.34-.55-.1Z"/><path class="cls-2" d="M9.93,74.88c-.22.23-.56.3-.78.55a3.2,3.2,0,0,0-.55.9c-.18.43.35.36.51.09-.43.19-.53.27-.31.23a.54.54,0,0,0,.25-.15,2.7,2.7,0,0,0,.35-.59c.23-.38.73-.44.91-.89s-.21-.33-.38-.14Z"/><path class="cls-2" d="M9.92,75.06a3.34,3.34,0,0,0-.28,1c0,.31-.17.58,0,.85s.31,0,.36-.09a2.32,2.32,0,0,0,.38-1.92c0-.25-.42.09-.46.18Z"/><path class="cls-2" d="M9.7,75.36a3.07,3.07,0,0,1-.47.94c-.13.22-.39.53-.35.8s.09.15.2.13c.45-.08.62-.57.81-.93a2.08,2.08,0,0,0,.38-1.15c0-.36-.53,0-.57.21Z"/><path class="cls-2" d="M9.79,98.22a60.45,60.45,0,0,1,5.57-3.57c1.71-.93,3.15-2.25,4.77-3.3.13-.08.46-.48.24-.63-.61-.41-1.75-1.41-2.55-1.21a1.26,1.26,0,0,0-.62.41,17.72,17.72,0,0,1-1.77,1.91c-1.06,1-2.15,1.9-3.24,2.84s-1.94,2.19-3,3.13c-.49.42,0,.86.44.44.77-.66,1.33-1.54,2.06-2.25.93-.91,2-1.69,2.95-2.54A28.69,28.69,0,0,0,17.14,91c.43-.48.3-.73.92-.53a16.47,16.47,0,0,1,1.69.94c.06-.23.11-.45.17-.68A44,44,0,0,1,15,94.34a54.35,54.35,0,0,0-5.32,3.58c-.2.15-.16.49.11.3Z"/><path class="cls-2" d="M9.36,98.3l.08.13a.13.13,0,0,0,.16.06A12.62,12.62,0,0,0,12.67,97c1.32-.75,2.74-1.33,4.13-2s3-1.9,4.65-2.07c.58-.06,1.5.55,2.06.72a13.17,13.17,0,0,0,1.9.62c.34,0,.84-.68.36-.75-1.37-.21-2.59-1.17-4-1.3-1.22-.11-2.71,1-3.72,1.55-1.51.77-3.09,1.4-4.6,2.16-.79.39-1.55.84-2.32,1.26-.21.12-1.25.92-1.48.8s-.38.18-.31.31Z"/><path class="cls-2" d="M9.78,98.17l-.11.08.24.23c.28-.42,1.88-.22,2.39-.31a34.6,34.6,0,0,0,4.22-1.25c1.45-.45,2.87-.91,4.33-1.31s2.86-1.25,4.26-1.29c.34,0,.83-.76.36-.75-1.51,0-3,.88-4.43,1.27-1.89.53-3.74,1.16-5.64,1.68a25.21,25.21,0,0,1-4.37,1c-.62.07-1.33.27-1.52.94-.09.3.31.12.4,0l.08-.1c.14-.19,0-.35-.21-.21Z"/><path class="cls-2" d="M19.67,91.18a8.89,8.89,0,0,0,0,1.86c0,.36.54,0,.55-.27a7.57,7.57,0,0,0,0-1.78c-.05-.33-.49,0-.52.19Z"/><path class="cls-2" d="M20.17,95.67a6.66,6.66,0,0,0-.12,2.14c0,.33.55,0,.55-.27s0-.68,0-1a2.24,2.24,0,0,0-.11-1c-.09-.15-.28.06-.31.15Z"/><path class="cls-2" d="M9.76,98.63c3.48.28,6.88-.33,10.34-.35.32,0,.79-.72.35-.72-1.8,0-3.51.27-5.29.39s-3.43,0-5.15.16c-.21,0-.59.49-.25.52Z"/><path class="cls-2" d="M40.74,48.52A3,3,0,0,0,38.1,51c-.15,1.55,1.51,1.88,2.63,1.2s2.45-2.17,1.6-3.44c-.48-.73-2.69-.08-2.27.61a.22.22,0,0,0,.21.13c.44,0,.89-.29,1.28.05.72.64-.69,1.87-1.21,2.06a.93.93,0,0,1-1.29-1.11c.15-.74.9-1.1,1.53-1.36.17-.07.57-.7.16-.66Z"/><path class="cls-2" d="M39.24,49.52a7.93,7.93,0,0,0-.62,2.56c0,.46.64,0,.73-.18.43-1,1.12-2,1.47-3.07l-.65.16a21.56,21.56,0,0,0-.85,3c0,.45.57.05.68-.08a4.47,4.47,0,0,0,.68-1.13c.23-.53.51-1,.7-1.58l-.68.09c-.08.34-1,2.48-.24,2.49s1.32-1.88,1.61-2.5h-.69a4.42,4.42,0,0,0-.51,2.27c.07.49.66,0,.74-.27.23-.68.29-1.41.5-2.1.16-.53-.67-.16-.76.2a8.82,8.82,0,0,1-.31.86,4.94,4.94,0,0,1-.26.57,1.51,1.51,0,0,1-.15.28c-.14.22.37.11.33-.05a2.25,2.25,0,0,1,.2-1,8.08,8.08,0,0,0,.26-.93c.09-.56-.63-.12-.72.18a6.35,6.35,0,0,1-1.19,2.31l.59.11A10,10,0,0,1,40.51,50a3.23,3.23,0,0,0,.32-1.29c0-.42-.62,0-.66.24a3.93,3.93,0,0,1-.57,1.25c-.29.52-.53,1.06-.87,1.55h.65c.15-.84.37-1.64.59-2.46.15-.53-.64-.14-.73.18Z"/><path class="cls-2" d="M42.56,49.51c.2-1,.24-2,.38-3a6.9,6.9,0,0,0,.19-2.63c-.07-.24-.43.06-.47.17-.66,1.78-.45,3.8-.66,5.66,0,.33.52,0,.56-.21Z"/><path class="cls-2" d="M43,44.35c.09-.1.63.24.71.29.33.23.45.58.85.72a1.25,1.25,0,0,0,1.43-1c0-.18-.19-.17-.29-.12a1.3,1.3,0,0,0-.34.21c-.33.27-.58-.12-.73-.31a2,2,0,0,0-.76-.51,1,1,0,0,0-1.36.61c-.09.35.35.26.49.09Z"/><path class="cls-2" d="M42.81,46.38c.34-.3,1.42.77,1.69.94a1.22,1.22,0,0,0,1.74-.7c.25-.53-.45-.43-.65-.11s0,.2-.2.16a1.16,1.16,0,0,1-.42-.2c-.29-.18-.55-.41-.84-.59a1.14,1.14,0,0,0-1.68.27c-.26.33.12.43.36.23Z"/><path class="cls-2" d="M-5.11,61.42a2.91,2.91,0,0,0-3.22,1.51c-.75,1.31.59,2.4,1.87,2.14,1-.22,2.72-1,2.78-2.29a1.28,1.28,0,0,0-2.15-1,.4.4,0,0,0-.14.38c.14.36.79.27,1.1.4.92.38-.29,1.22-.68,1.41-.67.33-2,.35-2.07-.63s1.42-1.2,2.09-1.25c.22,0,.81-.58.42-.69Z"/><path class="cls-2" d="M-6.73,61.85a9.64,9.64,0,0,0-1.5,2.31c-.14.42.42.27.58.11A31.1,31.1,0,0,0-5.2,61.85l-.53-.09a23.23,23.23,0,0,0-1.78,2.51c-.11.26.06.52.35.35a10.25,10.25,0,0,0,2.4-2.25l-.54-.2c-.18.29-1.85,2.13-1.12,2.4s1.79-1.38,2.2-1.8l-.4-.41a5.3,5.3,0,0,0-1.33,2.1c-.12.48.5.2.64,0,.43-.58.74-1.22,1.17-1.8s-.28-.61-.57-.21a6,6,0,0,1-.5.63l-.39.41-.19.19c-.27.25,0,0,0,.24,0-.24.46-.73.59-.92a7.47,7.47,0,0,0,.51-.74c.28-.48-.4-.35-.6-.1a6.39,6.39,0,0,1-1.87,1.76l.34.35a8.85,8.85,0,0,1,1-1.44,3.85,3.85,0,0,0,.75-1.16c.15-.46-.51-.11-.62.08a4.37,4.37,0,0,1-.95.92,16.53,16.53,0,0,1-1.27,1.11l.44.28a19.42,19.42,0,0,1,1.33-2c.35-.51-.28-.59-.55-.21Z"/><path class="cls-2" d="M-3.73,63c.5-.85.87-1.76,1.32-2.64A7.52,7.52,0,0,0-1.3,57.89c0-.29-.38,0-.44,0-1.2,1.44-1.67,3.41-2.49,5.06-.21.41.36.24.5,0Z"/><path class="cls-2" d="M.6,63.47A2.92,2.92,0,0,0-2.61,65c-.75,1.31.59,2.4,1.87,2.14C.29,66.9,2,66.07,2,64.83a1.28,1.28,0,0,0-2.15-1,.4.4,0,0,0-.14.38c.13.36.79.27,1.1.4C1.77,65,.56,65.85.17,66c-.67.33-2,.35-2.07-.63s1.42-1.2,2.09-1.25c.22,0,.81-.58.41-.69Z"/><path class="cls-2" d="M-1,63.9a9.64,9.64,0,0,0-1.5,2.31c-.14.42.42.27.58.11A32.92,32.92,0,0,0,.52,63.9L0,63.81a23.23,23.23,0,0,0-1.78,2.51c-.11.26.05.52.34.35A10.1,10.1,0,0,0,1,64.42l-.54-.2c-.18.29-1.85,2.13-1.12,2.4s1.79-1.38,2.2-1.8l-.4-.41a5.3,5.3,0,0,0-1.33,2.1c-.12.48.5.2.64,0,.43-.58.74-1.22,1.17-1.8s-.28-.61-.57-.21a7.68,7.68,0,0,1-.5.63l-.39.41-.2.19c-.26.25,0,0,0,.24,0-.24.45-.73.59-.92A7.47,7.47,0,0,0,1,64.32c.28-.48-.4-.36-.6-.1A6.31,6.31,0,0,1-1.46,66l.35.35a8.85,8.85,0,0,1,1-1.44A3.82,3.82,0,0,0,.6,63.73c.16-.46-.5-.11-.61.08a4.37,4.37,0,0,1-.95.92c-.42.38-.82.77-1.27,1.11l.44.28a20.55,20.55,0,0,1,1.33-2c.35-.51-.28-.59-.55-.21Z"/><path class="cls-2" d="M2,65.05c.62-1.07,1.09-2.23,1.69-3.32.39-.71,1.3-1.8,1.24-2.64,0-.23-.29-.11-.39,0a9.81,9.81,0,0,0-1.38,2.34c-.63,1.18-1.06,2.43-1.66,3.63-.21.41.36.24.5,0Z"/><path class="cls-2" d="M-1.51,58c.93.41,2,.51,2.91.85A6.17,6.17,0,0,0,4,59.42c.22,0,.85-.59.43-.73C3.67,58.42,2.84,58.27,2,58a23.7,23.7,0,0,0-3.14-.55c-.25,0-.74.44-.41.58Z"/><path class="cls-2" d="M-2.08,59.26a28,28,0,0,0,3,.9,9.06,9.06,0,0,0,2.78.64c.18,0,.61-.35.4-.55a5.85,5.85,0,0,0-2.56-1c-1-.29-2.12-.41-3.16-.68-.29-.07-.82.5-.46.65Z"/><path class="cls-2" d="M-1,57.84a9.49,9.49,0,0,0-.94.85.36.36,0,0,0-.14.37.12.12,0,0,0,.08.09.33.33,0,0,0,.3-.08l.88-.75c.12-.1.3-.29.23-.47s-.31-.1-.41,0Z"/><path class="cls-2" d="M0,58.07A5.76,5.76,0,0,0-1.08,59c-.13.16,0,.36.17.27A6.65,6.65,0,0,0,.2,58.59c.36-.26.29-.86-.19-.52Z"/><path class="cls-2" d="M1.16,58.5A5.68,5.68,0,0,0,.65,59c-.17.19-.2.63.16.44A5.62,5.62,0,0,0,1.46,59c.49-.36.22-.93-.3-.48Z"/><path class="cls-2" d="M2.18,58.59l-.46.4a.53.53,0,0,0-.23.38c0,.18.2.2.32.13l.48-.28a.69.69,0,0,0,.39-.53c0-.28-.35-.22-.5-.1Z"/><path class="cls-2" d="M3,58.73a7.06,7.06,0,0,0-1,.92c-.15.17-.2.6.16.41a7.41,7.41,0,0,0,1.09-.77c.15-.12.35-.34.27-.55s-.35-.11-.47,0Z"/><path class="cls-2" d="M4.2,59.08A12.22,12.22,0,0,0,3,60.15c-.16.17-.17.48.13.36a5.82,5.82,0,0,0,1.31-.78c.17-.13.4-.4.31-.64s-.42-.13-.55,0Z"/><path class="cls-2" d="M45.78,33.2c.14-4.46.3-9,2.26-13.07,1.47-3.07,4.73-6,8.28-4.32,2.53,1.2,3.89,4.3,4.68,6.81a18.78,18.78,0,0,1,.76,5.06c.09,2.33-.39,4.77-.14,7.07,0,.43.61,0,.66-.24a32.57,32.57,0,0,0,.29-7.71,18.69,18.69,0,0,0-1-5.29c-.94-2.84-2.77-6.16-5.91-6.92-3.32-.81-6.4,1.94-7.9,4.6-2.47,4.37-2.78,9.39-2.63,14.3,0,.38.59,0,.6-.29Z"/><path class="cls-2" d="M45.06,33.47c-1,2.16,3.12,2.13,4.25,2.14,1.47,0,2.94-.15,4.41-.2,1.28,0,2.56,0,3.84,0a15.65,15.65,0,0,1,3.81.38c.43.14,1.1-.76.64-.89a22.28,22.28,0,0,0-5.48-.38c-1.81,0-3.61.08-5.42.19-1,.06-5.78.52-5.45-1.35.08-.45-.5-.15-.6.07Z"/><path class="cls-2" d="M46.44,23.24a8.49,8.49,0,0,0,2,.64c.64.19,1.34.75,2,.65a.49.49,0,0,0,.36-.42c0-.68-1-.88-1.51-1a9.41,9.41,0,0,0-2.51-.46c-.25,0-.68.44-.38.63Z"/><path class="cls-2" d="M48.85,23.26a10.65,10.65,0,0,1,3.2-5.55c1.49-1.18,3.94-2.08,5.69-1,.37.24,1.13-.46.78-.78-1.74-1.6-4.77-.14-6.39.92a9.72,9.72,0,0,0-3.83,6.5c-.07.42.48.09.55-.13Z"/><path class="cls-2" d="M49.41,20.63A1.58,1.58,0,0,0,49.74,22c.14.14.35,0,.46-.11a3,3,0,0,0,.59-1c0-.1.08-.29-.07-.33a5.13,5.13,0,0,0-.87-.26c-.24,0-.69.48-.38.64a5.59,5.59,0,0,0,.78.28l-.06-.33a2.12,2.12,0,0,1-.34.69l.46-.12a1.53,1.53,0,0,1-.33-1c0-.38-.56,0-.57.28Z"/><path class="cls-2" d="M51.09,33.33a11.86,11.86,0,0,1,1.45-5.58c1.08-1.68,3.49-3.42,5.57-2.67,2.9,1,2.45,6.1,2.44,8.41,0,.55.84-.06.87-.42.25-2.88.24-8.88-3.86-9-2.12-.08-4.17,1.66-5.39,3.21a10,10,0,0,0-1.69,6.38c0,.39.59,0,.61-.29Z"/><path class="cls-2" d="M51,33.36v0c-.23-.45-1,.49-.49.57a40.44,40.44,0,0,0,5.4.19,34.18,34.18,0,0,0,5-.08c.43-.06.89-1,.23-.9a36.37,36.37,0,0,1-5.22.05,33.8,33.8,0,0,0-5.13.07l.17.42c.05-.07.15-.2.09-.3Z"/><path class="cls-2" d="M51.52,29.44a34.39,34.39,0,0,0,4.65.2,18.36,18.36,0,0,1,4.38.13c.43.09,1.09-.8.64-.89a13.69,13.69,0,0,0-4.14-.19c-1.72.15-3.44-.17-5.16,0-.3,0-.88.7-.37.76Z"/><path class="cls-2" d="M59.35,29.38a9.56,9.56,0,0,0-.38,1c0,.21.08.33.28.29.36-.07.73,0,1-.27s.18-.72.07-1.09a.18.18,0,0,0-.17-.11.55.55,0,0,0-.43.26c-.22.3.09.54,0,.85l.34-.41c-.12.07-.39,0-.53,0l.19.3c.08-.31.3-.59.25-.92s-.55-.06-.63.15Z"/><path class="cls-2" d="M51.65,15.69c-.14-1.23.86-2,2-2.32s2.1.81,2.1,1.85c0,.48.71-.05.74-.36a2.68,2.68,0,0,0-.95-1.92,1.94,1.94,0,0,0-2-.18c-1.11.43-3.15,1.82-2.4,3.27.14.28.59-.12.56-.34Z"/><path class="cls-2" d="M52.52,15.15a1.1,1.1,0,0,1,1.1-.94c.5-.05,1.07.12,1.06.71s.75,0,.75-.37c0-2-3.93-.93-3.47.87.08.3.54-.12.56-.27Z"/><path class="cls-2" d="M50.72,16.28c-.81-2.35-3.7-4-6.1-4.12s-4.71,2-5.67,4.18a10.54,10.54,0,0,0-.66,4.59,23.69,23.69,0,0,0,.6,5.31,10.3,10.3,0,0,0,2.33,4.34c.61.69,1.31,1.31,2,1.94a7.38,7.38,0,0,0,1.65,1.36c.38.19,1.06-.64.62-.86a13.5,13.5,0,0,1-2.85-2.55,10.24,10.24,0,0,1-2.33-3.32,18.89,18.89,0,0,1-1.08-8c.07-2.87,1.78-5.92,4.94-6A7.34,7.34,0,0,1,50,16.8c.19.38.84-.2.73-.52Z"/><path class="cls-2" d="M45.68,32.47c-.48-1.93-2.5-3.49-3.66-5a8.78,8.78,0,0,1-1.5-6.18c.16-2.52.36-5.55,3.19-6.5,2.2-.73,4,1.43,5.5,2.71.35.32,1.14-.5.8-.8-1.71-1.49-3.29-3.21-5.75-2.83-2.21.34-3.68,2.54-4.18,4.53a22.78,22.78,0,0,0-.41,4,9,9,0,0,0,.54,3.71,11.39,11.39,0,0,0,2.16,3.28A26.59,26.59,0,0,0,45.3,32.8c.16.13.42-.16.38-.33Z"/><path class="cls-2" d="M57.47,15.57A2.09,2.09,0,0,1,61,14.89a7.11,7.11,0,0,1,1.44,2.61,8.55,8.55,0,0,1,.16,4.38,15.07,15.07,0,0,1-.83,3.57c-.25.58.5.36.68,0a15.22,15.22,0,0,0,1.18-5.17,8.42,8.42,0,0,0-1.1-5,3.13,3.13,0,0,0-3.33-1.86c-1.33.12-1.95,1.07-2.3,2.24-.11.39.46.15.55-.07Z"/><path class="cls-2" d="M58,16.41s0,.06,0,.08c0,.33.45,0,.51-.13.82-1.76,2.69,1.54,2.94,2,.33.64,0,1.42-.07,2.08s.05,1.36-.11,2.07c-.12.49.62.15.68-.17a24,24,0,0,0,.27-3.28c.07-1.14-.54-1.79-1.13-2.68-.38-.59-1-1.45-1.83-1.25a1.86,1.86,0,0,0-.83.49c-.06.06-.54.62-.2.51-.11,0-.25.15-.24.28Z"/><path class="cls-2" d="M5.47,43.61c2.37,1.75,4.64,3.61,7,5.43a65.13,65.13,0,0,0,6.63,4.21c.24.15.64-.28.66-.49.1-.68,1-1.32,1.33-1.91s.72-1.33,1.07-2a29.43,29.43,0,0,1,3.66-5.14c2.52-3,5.08-5.85,7.41-9,.4-.54-.29-.62-.6-.22-1.24,1.56-2.44,3.16-3.7,4.71S26,42.4,24.69,44a32,32,0,0,0-3.31,4.8,11,11,0,0,1-1.73,2.77A2.25,2.25,0,0,0,18.93,53l.67-.49c-2.2-1.33-4.41-2.59-6.5-4.11-2.38-1.73-4.64-3.63-7-5.35-.29-.2-.87.4-.6.6Z"/><path class="cls-2" d="M5.92,43.46c2.06-2.31,3.67-5,5.73-7.33.56-.64,1.15-1.25,1.7-1.9a19.37,19.37,0,0,0,1.52-2.46c.49-.78,1.35-1.18,1.91-1.9.73-.95,1.45-1.91,2.1-2.92.37-.57-.33-.68-.61-.22-.56.88-1.17,1.72-1.81,2.55s-1.33,1.25-1.92,1.94-.95,1.7-1.52,2.48S11.65,35.25,11,36c-1,1.07-1.78,2.26-2.63,3.41s-1.95,2.48-2.78,3.81c-.2.32.12.48.36.22Z"/><path class="cls-2" d="M18.66,26.83c2.9,0,4.64,2.5,6.94,3.83.8.45,1.51.94,2.27,1.46a9.68,9.68,0,0,0,1.52.62,9.23,9.23,0,0,1,2,1.24,5.7,5.7,0,0,0,1.22,1c.35.17,1-.6.56-.77-.64-.27-.84-.85-1.39-1.18A20,20,0,0,0,30,32a9.63,9.63,0,0,1-2-1,9.54,9.54,0,0,0-1.78-1.09c-2.61-1.24-4-4-7.23-3.61-.23,0-.65.58-.28.58Z"/><path class="cls-2" d="M19.27,56c1.1-1.54,2.3-3,3.48-4.48s2.21-3.35,3.35-5c.56-.81,1-1.67,1.6-2.48A27.9,27.9,0,0,1,30,41.58c1.32-1.51,2.38-3.19,3.76-4.66.29-.31.11-.82-.3-.47a25.45,25.45,0,0,0-3.64,4.49c-.61.83-1.45,1.44-2.09,2.24A28.92,28.92,0,0,0,25.88,46a49.36,49.36,0,0,1-3.58,5.35,28,28,0,0,0-3.38,4.59c-.15.29.23.22.35.06Z"/><path class="cls-2" d="M5.59,45.63a34.18,34.18,0,0,0,3.17,2.72c1.2,1,2.26,2.15,3.43,3.17a28.46,28.46,0,0,0,3.44,2.33,18.26,18.26,0,0,1,1.66,1.23c.54.45,1.22.63,1.75,1.06.3.24.92-.42.64-.64-.44-.35-1-.49-1.45-.82s-1.07-.84-1.63-1.22c-1.25-.87-2.58-1.61-3.75-2.6-2.27-1.91-4.16-4.3-6.8-5.78-.22-.12-.66.35-.46.55Z"/><path class="cls-2" d="M19.43,50.53a1.24,1.24,0,0,1,2.21.13,2.54,2.54,0,0,1,.07,2c-.18.46-.63,1.1-1.16,1.09-.26,0-.92.55-.59.82.73.58,1.76-.62,2.17-1.14a3.34,3.34,0,0,0,.37-3.4,1.75,1.75,0,0,0-2-1c-.69.15-1.59.68-1.52,1.49,0,.26.35.06.43,0Z"/><path class="cls-2" d="M21.42,47.27c1-.62,2.8-1.11,3.09.54a7.81,7.81,0,0,1,.12,1.45c0,.38-.35,1.69-.91,1.11-.33-.35-.91.38-.83.71.17.77,1.25.3,1.66,0a3,3,0,0,0,1-2.79c-.07-1-.24-2-1.24-2.39-1.17-.48-2.21.24-3.08.94-.28.22-.26.67.15.42Z"/><path class="cls-2" d="M23.76,43.82c1-.89,2.2-.12,2.69.86a2.76,2.76,0,0,1,.27,1c.05.54-.13.81-.69.79s-1,.92-.45.93c1.65,0,2.33-1.51,1.89-2.94a2.32,2.32,0,0,0-4-1c-.32.37,0,.66.33.34Z"/><path class="cls-2" d="M25.77,40.9c.94-.37,2.27-.55,2.89.44a2.54,2.54,0,0,1,.25,1.39,2.91,2.91,0,0,1-.11.71c-.13.5-.49.2-.85.07s-1.07.61-.63.88c1.95,1.17,2.76-1.57,2.44-3-.43-2-2.6-1.73-4-1-.24.13-.43.67,0,.49Z"/><path class="cls-2" d="M27.94,38.28c.94-.55,2.17-1.19,3.07-.27a2.18,2.18,0,0,1,.55,1.34,2.62,2.62,0,0,1,0,.79c0,.09-.64,0-.71,0-.45-.06-1.09.93-.47,1a1.8,1.8,0,0,0,1.92-.76,2.83,2.83,0,0,0,0-2.33c-.8-2.2-3.11-1.28-4.47-.25-.22.17-.32.75.09.51Z"/><path class="cls-2" d="M30.56,35.33a2.22,2.22,0,0,1,2.61.09,2.62,2.62,0,0,1,.71,1.13c.31.83-.38.77-1,.77a.65.65,0,0,0-.59.7c.22.86,1.48.18,1.92-.14a1.8,1.8,0,0,0,.41-2.39A2.63,2.63,0,0,0,30.32,35c-.18.21-.05.54.24.38Z"/><path class="cls-2" d="M18.9,49.67A.94.94,0,0,0,18.42,51c.25.49,1,.4,1.36.14s.83-.86.46-1.37-1.09-.3-1.46-.06c-.21.14-.48.83,0,.68a.81.81,0,0,1,.65,0c.22.08,0,.14-.07.14s-.42-.29-.3-.41.2-.65-.17-.46Z"/><path class="cls-2" d="M21.27,46.27a.93.93,0,0,0-.51,1c.06.39.42.47.75.39.68-.18,1-1.5.08-1.44-.18,0-.71.42-.45.62.1.08.24.13.3.24s0,.11.13-.09a.19.19,0,0,1-.15-.28c.27-.22.24-.69-.15-.42Z"/><path class="cls-2" d="M23.28,43c-.47.11-.94.59-.71,1.1a1,1,0,0,0,1.66-1c-.33-.49-1.09-.11-1.28.29a.26.26,0,0,0,0,.28c.14.16.37,0,.53.18a.3.3,0,0,1,0,.1c.27-.19.31-.28.11-.26a.56.56,0,0,1-.19-.09c-.21-.15,0-.12-.16,0,.2-.12.4-.66,0-.57Z"/><path class="cls-2" d="M25.9,40c-1.19-.22-1.57,1.8-.4,1.64.57-.07,1.36-.7,1.21-1.35s-1.23-.6-1.44.08a.2.2,0,0,0,0,.2.26.26,0,0,0,.28.07c.12,0,.41.11.2.17s-.16-.07-.19-.12c-.13-.25.1-.06-.09,0,.2,0,.76-.58.39-.65Z"/><path class="cls-2" d="M28,37.29c-.88-.38-1.46,1.71-.19,1.52a1.09,1.09,0,0,0,.91-1,.58.58,0,0,0-.9-.53c-.25.13-.66.87-.1.74.07,0,.09,0,.13,0,.14.24-.19.09.26-.06-.07,0-.16,0-.19-.1l-.06-.12c-.22.21-.26.27-.1.17s.55-.5.24-.64Z"/><path class="cls-2" d="M30.44,34.28a1,1,0,0,0-.81,1.08c.14.58.77.5,1.2.33s.86-.84.34-1.17-1-.26-1,.34a.18.18,0,0,0,.11.17l.2.09.13.09c.29-.19.33-.25.12-.17a.32.32,0,0,1-.25,0c-.11-.08,0-.14-.08-.11.2-.1.52-.72.07-.6Z"/><path class="cls-2" d="M17.41,35l2.69,2c.73.55,1.45,1.36,2.39,1.42.18,0,.42-.24.36-.43-.26-.83-1.28-1.29-2-1.78l-2.74-2c-.36-.26-1.07.49-.74.74Z"/><path class="cls-2" d="M18.49,33.44c.68.52,1.39,1,2.1,1.5a5,5,0,0,0,1.94,1c.19,0,.49-.28.41-.47a3.72,3.72,0,0,0-1.54-1.37c-.72-.48-1.44-1-2.14-1.47-.37-.27-1.12.52-.77.78Z"/><path class="cls-2" d="M6.26,45.05c.9.71,1.79,1.42,2.67,2.16a13.36,13.36,0,0,0,2.45,2c.18.09.45-.22.39-.39a6.28,6.28,0,0,0-2.11-2.36,32.77,32.77,0,0,0-2.82-2c-.28-.18-.85.38-.58.58Z"/><path class="cls-2" d="M12.08,50.38c.63.42,1.2.94,1.85,1.32.3.18.94-.54.63-.74a5.4,5.4,0,0,0-2-1.18c-.21,0-.68.43-.44.6Z"/><path class="cls-2" d="M14.88,51.83c.66.46,1.33.91,2,1.38a8.92,8.92,0,0,0,2,1.46c.19.06.48-.22.41-.42-.24-.67-1-1.11-1.59-1.51-.74-.52-1.51-1-2.26-1.5-.29-.19-.85.4-.58.59Z"/><path class="cls-2" d="M59.08-3.33c.62.28,1.25.53,1.89.76.35.13-.16,1.62-.21,1.9a15.78,15.78,0,0,0-.5,3.05c0,.39.51.06.62-.07,1.91-2.53,4.79-4.12,6.82-6.53.87-1,1.58-.57,2.61-.36.78.16,1.62.18,2.41.29A28,28,0,0,1,78-3.17c.35.12,1-.57.56-.78a7.54,7.54,0,0,0-2.43-.6c-1-.14-2-.45-3-.6S71-5.38,69.88-5.64a2.57,2.57,0,0,0-1.64.13c-.63.24-1.15,1.12-1.56,1.59-.63.72-1.49,1.32-2.19,2a38.44,38.44,0,0,0-4.13,4L61,2a21.16,21.16,0,0,1,1-4.95c0-.1,0-.25-.11-.28-.81-.23-1.59-.53-2.42-.68-.22,0-.69.4-.38.54Z"/><path class="cls-2" d="M58.85-3.06c-.08-.1-.22.74-.22.85,0,.3.23.39.46.46.9.3.17,1.47,0,2.14a14.55,14.55,0,0,0-.4,2.07c-.11.87.25,2,1.21,2.18a2.44,2.44,0,0,0,1.85-.83c.76-.71,1.35-1.54,2-2.31C64.86.31,66.27-.42,67.25-1.72c.29-.38.55-.77.87-1.13s1.18-.17,1.66,0a12,12,0,0,0,2,.36,18.27,18.27,0,0,1,2.85.6c1,.28,2,.24,2.88.59.33.12.67-.28.75-.55.17-.52.37-1,.56-1.53l-.6.43h.23c.22,0,.84-.52.52-.72l-.16-.11c-.29-.18-.64.12-.77.38a10.08,10.08,0,0,0-.66,1.76l.76-.55c-1.21-.42-2.53-.41-3.76-.75s-2.53-.38-3.78-.64c-.64-.13-1.51-.63-2.17-.25a7.23,7.23,0,0,0-2,2.21c-.81,1.07-2.11,1.74-3.05,2.7C62.79,1.69,62.3,2.4,61.73,3c-.93,1-2.18,1.19-2.32-.53-.12-1.42.61-3.16,1-4.49,0-.09,0-.23-.1-.26-.46-.12-1-.24-1-.82,0-.11.08-.39,0-.48s-.68.28-.5.51Z"/><path class="cls-2" d="M67.17.38A5.09,5.09,0,0,1,67.94,2c0,.28.3.2.48.09A25.64,25.64,0,0,1,71.6.75L71.22.51c-.31,1.12-.89,2.14-1.24,3.25-.14.45-.24.89-.4,1.33-.27.75-.89.26-1.42,0-.21-.1-.51.19-.58.36-.19.41-.26.85-.45,1.27,0,.1-.08.3.07.34,1.62.42,3.16,1.06,4.76,1.51.26.07.51-.2.58-.43a4.89,4.89,0,0,1,.64-1.22c.07-.1.14-.3,0-.37-.62-.26-1.78-.37-1.33-1.39.27-.6.45-1.22.66-1.84A41.67,41.67,0,0,0,73.83-.92c0-.11,0-.23-.11-.27-.7-.3-1.51-.25-2.25-.54-.31-.12-.91.15-1.2.27a16.17,16.17,0,0,1-2.38,1c-.4.09-.84,1-.22.87,1.21-.28,2.45-1.43,3.71-1.08a5,5,0,0,0,1.08.19c1,0,.35,1,.15,1.68-.48,1.51-1,3-1.59,4.48-.44,1.21.83,1.29,1.74,1.49,0-.12,0-.24,0-.36a3.84,3.84,0,0,0-.89,1.55l.59-.43a20.6,20.6,0,0,1-2-.76,27.57,27.57,0,0,0-2.74-.73l.06.34c.21-.42.29-.86.49-1.27l-.58.35c1,.52,1.83.8,2.43-.33a9.39,9.39,0,0,0,.7-1.92c.31-1.11.92-2.11,1.19-3.24C72,.06,71.8,0,71.59.07c-1.11.55-2.28.79-3.37,1.44h.47a2.88,2.88,0,0,0-1-1.56c-.18-.17-.62.22-.5.42Z"/><path class="cls-2" d="M36.61,64.09a2.14,2.14,0,0,1,2.86.48,1.89,1.89,0,0,1-.62,3.25A2.34,2.34,0,0,1,36.09,67a2.38,2.38,0,0,1,.61-2.9c.32-.27.27-.85-.19-.51a3.39,3.39,0,0,0-1.31,3.78c.57,1.61,2.73,1.59,4,1a2.77,2.77,0,0,0,1.3-3.94,2.66,2.66,0,0,0-4-.81C36.28,63.75,36.22,64.31,36.61,64.09Z"/><path class="cls-2" d="M36.21,60.5a5.07,5.07,0,0,0,.38,1.83c.17.26.59-.23.63-.38a4.46,4.46,0,0,0-.24-2c-.09-.41-.84.2-.77.56Z"/><path class="cls-2" d="M38.47,70a11.69,11.69,0,0,0,.62,2c.15.35.7-.15.68-.4a11.13,11.13,0,0,0-.46-2.21c-.12-.45-1,.2-.84.6Z"/><path class="cls-2" d="M42.2,65c.44-.18.88-.36,1.3-.58.22-.11.55-.76.08-.63s-.93.3-1.39.47-.61,1,0,.74Z"/><path class="cls-2" d="M31.89,67.88a6.52,6.52,0,0,0,1.16-.27c.22-.09.58-.62.17-.68a3.35,3.35,0,0,0-1.13.15c-.37.09-.8.91-.2.8Z"/><path class="cls-2" d="M40.39,62.45c.19-.35.38-.7.59-1a1.87,1.87,0,0,0,.4-.91c0-.25-.29-.16-.41-.08a5.15,5.15,0,0,0-1.32,2c-.08.16-.07.42.17.42a.7.7,0,0,0,.57-.41Z"/><path class="cls-2" d="M35.65,69.52a10.18,10.18,0,0,0-1,1.91.23.23,0,0,0,.21.32.73.73,0,0,0,.52-.31,8,8,0,0,0,.91-1.8c.23-.55-.44-.45-.65-.12Z"/><path class="cls-2" d="M41.24,68.69a5.41,5.41,0,0,0,1.92,1c.24,0,.73-.4.57-.67a1.74,1.74,0,0,0-.7-.58c-.38-.23-.76-.45-1.13-.69s-1.12.64-.66.92Z"/><path class="cls-2" d="M32.12,63.37a4.07,4.07,0,0,0,2,1c.2,0,.48-.26.4-.46-.23-.62-1-1-1.55-1.3s-1.17.57-.8.8Z"/><path class="cls-2" d="M-26.2,18.42c.92,2,1.86,4,2.71,6a.15.15,0,0,0,.15.1h.08a.53.53,0,0,0,.46-.39c.09-.53,1.79-1.15,2.23-1.43,1.08-.68,2.06-1.48,3.19-2.09a50.87,50.87,0,0,1,6.09-2.82,12.9,12.9,0,0,0,2.75-1.56c1-.68,2.23-.92,3.2-1.61,1.84-1.3,4-1.89,5.88-3.09.34-.22.26-.75-.17-.47A21.86,21.86,0,0,1-3,12.7c-1.17.49-2.06,1.31-3.2,1.84A22.46,22.46,0,0,0-9.43,16.3a23.36,23.36,0,0,1-4,1.69,35.28,35.28,0,0,0-5.94,3.25,30.17,30.17,0,0,1-3.15,2,1.61,1.61,0,0,0-1,1.07l.46-.39S-24.1,21.23-24.22,21c-.49-1-1-1.94-1.48-2.92-.13-.26-.6.14-.5.36Z"/><path class="cls-2" d="M-1.15,5.57C-.79,6.4-.4,7.21,0,8A7.27,7.27,0,0,0,.58,9.21c.37.51.45,1.2.91,1.62.21.2.7-.29.5-.5-.4-.42-.51-1.11-.83-1.61A11.92,11.92,0,0,1,.44,7.35,5.11,5.11,0,0,0-.78,5.26c-.15-.12-.44.14-.37.31Z"/><path class="cls-2" d="M-12,76.05a9.78,9.78,0,0,1,7.16-.21,7.56,7.56,0,0,1,5,4.77c1.66,4.2.38,9.24-3.85,11.3A8.68,8.68,0,0,1-15,88.51c-2.27-4.18-1.06-10,3-12.52.25-.16.3-.7-.09-.49-4.47,2.46-5.64,8.3-3.85,12.81,1.89,4.79,7.8,6.1,12.15,4.11A9.66,9.66,0,0,0,1.1,80.77,11.05,11.05,0,0,0-.65,77.42a8.28,8.28,0,0,0-3.74-2.25,10.27,10.27,0,0,0-7.65.31C-12.33,75.63-12.49,76.28-12,76.05Z"/><path class="cls-2" d="M.2,79.35c-.7,0-3.11,1.37-2.95,2.23.11.57.5.83,1,1.13A3,3,0,0,1-.33,85c.07.67-.4,2.62.64,2.74.22,0,.66-.47.36-.6-.59-.24-.29-2.32-.35-2.86a3,3,0,0,0-1.23-2c-.33-.26-.69-.44-1-.73s.54-.83.74-.95a11.26,11.26,0,0,0,1.32-.83c.11-.07.34-.43.06-.44Z"/><path class="cls-2" d="M-.22,80.15a10.56,10.56,0,0,1-.89,1.48,2.73,2.73,0,0,0-.63,1.12c0,.17.2.11.27.06a6.2,6.2,0,0,0,1-1.28,4.73,4.73,0,0,0,.78-1.45c.13-.41-.47-.12-.57.07Z"/><path class="cls-2" d="M.49,80.74a7.14,7.14,0,0,0-.82,1.08c-.2.32-.58.68-.61,1.07,0,.11.1.12.18.11.36,0,.61-.44.8-.72S.57,81.4.87,81s-.13-.49-.38-.24Z"/><path class="cls-2" d="M.64,81.85a9.09,9.09,0,0,0-1.1,1.67c-.11.24.15.23.28.1A8.9,8.9,0,0,0,1.07,82c.29-.39-.21-.46-.43-.16Z"/><path class="cls-2" d="M.65,83.24c0-.11-.11.1-.11.11l-.33.35a2.3,2.3,0,0,0-.6.88c-.06.24.21.24.35.13a5.53,5.53,0,0,0,.87-1c.12-.15.37-.42.26-.63s-.39,0-.44.16Z"/><path class="cls-2" d="M.86,84a3,3,0,0,0-.69,1.07c0,.14.1.17.2.13a2.85,2.85,0,0,0,1-1c.34-.45-.24-.51-.5-.18Z"/><path class="cls-2" d="M.84,85.16c-.29.53-1,.77-1.19,1.31,0,.09-.06.27.09.25.68,0,1.31-1,1.49-1.61.1-.29-.32-.07-.39,0Z"/><path class="cls-2" d="M.69,86.23c-.27.25-.73.53-.8.93,0,.07,0,.14.09.14.42,0,.76-.49,1-.75s0-.64-.33-.32Z"/><path class="cls-2" d="M38.91-13.3a24.81,24.81,0,0,1,0,4.31c0,.94.06,1.87,0,2.81A4.55,4.55,0,0,1,37.78-3.5,25.24,25.24,0,0,0,35.49.55C34.74,2.13,33.77,3.61,33,5.18c-.06.12,0,.29.11.3,2.48.13,4.93-.1,7.4-.13s5.13.14,7.71.16c.3,0,.73-.43.52-.72-.68-.94-1.25-1.94-1.91-2.9s-1.73-1.92-2.39-3-1.33-2-2-3A5.86,5.86,0,0,0,41.09-6c-.31-.23-.93.43-.64.64A6.23,6.23,0,0,1,42-3.25c.62,1,1.32,2,1.92,3a24.44,24.44,0,0,0,2,2.53c.8,1,1.4,2.18,2.18,3.2l.51-.71c-2.6,0-5.17-.07-7.77,0s-4.94.23-7.43.19l.12.3c.78-1.74,1.89-3.31,2.69-5A39.41,39.41,0,0,1,39.05-4.5c.83-1.29.52-2.88.57-4.34a21.66,21.66,0,0,0-.09-4.83c-.06-.3-.66.12-.62.37Z"/><path class="cls-2" d="M36.53,2.24c-.26.47-.26,1,.3,1.23a1.13,1.13,0,0,0,1.33-.58c.58-1.22-1.61-1.78-1.86-.59-.07.32.32.13.42,0,.25-.33,1.09.36.91.51s-.37,0-.49,0A.4.4,0,0,1,37,2.24c.16-.36-.31-.21-.42,0Z"/><path class="cls-2" d="M38.17,1.56c.3.2.54.34.87.1a.79.79,0,0,0,.23-.89c-.1-.28-.47-.24-.67-.13a.81.81,0,0,0-.41.78.13.13,0,0,0,.13.13h.09a.26.26,0,0,0,.2-.15.45.45,0,0,0,.08-.22c.19.08.2.14,0,.15l-.26-.11c-.14-.07-.43.24-.29.34Z"/><path class="cls-2" d="M43.51,3.2a.68.68,0,0,0,1.23.39c.5-.7-.5-1.34-1.11-.93-.09.07-.3.42,0,.42s.69-.05.73.33l.1-.06a.59.59,0,0,1-.19-.05A.35.35,0,0,1,44,3c0-.3-.48,0-.48.23Z"/></pattern></defs><rect class="cls-3" width="100" height="100"/></svg>